<svg width="473" height="471" viewBox="0 0 473 471" fill="none" xmlns="http://www.w3.org/2000/svg">
<g clip-path="url(#clip0_6_2)">
<path d="M394.02 255.176C394.371 254.95 394.722 254.724 395.643 254.127C396.478 252.174 396.948 250.593 396.968 249.007C397.055 242.044 396.781 235.065 397.183 228.123C397.279 226.467 399.376 223.662 400.718 223.56C406.708 223.106 412.801 223.891 418.771 223.327C422.631 222.962 423.033 224.584 423.034 227.436C423.036 234.899 422.941 242.364 423.162 249.82C423.2 251.123 424.585 252.385 425.348 253.666C425.348 253.666 425.239 253.832 425.234 254.155C427.178 255.286 429.115 256.726 431.076 256.76C434.351 256.817 435.456 258.066 435.089 261.096C435.089 261.096 435.034 261.086 434.798 261.145C434.401 261.503 434.241 261.803 434.08 262.103C434.08 262.103 434.009 262.012 433.799 262.116C433.426 262.522 433.263 262.826 433.1 263.129C433.1 263.129 433.088 262.999 432.747 263.054C425.486 266.337 421.871 272.685 418.078 278.721C414.663 284.155 410.284 285.991 407.297 282.637C402.017 276.709 396.444 271.018 391.499 264.825C389.619 262.471 389.134 259.005 388.413 256.045C390.548 255.755 392.284 255.466 394.02 255.176Z" fill="#EB8733"/>
<path d="M53.3745 188.995C53.2946 188.55 53.2147 188.105 53.5896 187.312C54.9768 185.237 55.909 183.509 57.1985 181.12C55.0692 181.559 54.1214 181.755 53.1737 181.951C50.268 181.529 47.3681 181.061 44.4551 180.697C40.493 180.202 39.6373 178.629 42.1943 175.577C49.6636 166.659 57.3472 157.921 64.8807 149.056C67.1363 146.402 69.1688 146.998 71.0916 149.236C77.8027 157.05 84.4535 164.916 91.0205 173.466C83.7613 177.648 77.6808 182.243 73.0312 188.941C71.7969 190.719 66.3879 192.137 65.6723 191.312C61.925 186.992 57.5186 189.208 53.3745 188.995Z" fill="#78C057"/>
<path d="M53.2698 189.454C57.5186 189.208 61.925 186.992 65.6723 191.312C66.3879 192.137 71.7969 190.719 73.0312 188.941C77.6809 182.243 83.7613 177.648 91.0705 173.789C92.5115 174.864 93.7956 176.32 96.0326 178.856C93.58 179.431 91.9459 180.234 90.3862 180.108C83.4196 179.55 82.7153 180.115 82.7123 187.231C82.7092 194.698 82.6878 202.165 82.6842 209.632C82.6822 213.964 81.2296 216.331 76.1955 215.953C70.4219 215.518 64.5796 215.707 58.7825 215.969C54.5591 216.159 52.7305 214.8 52.9474 210.318C53.276 203.529 53.117 196.716 53.2698 189.454Z" fill="#71B857"/>
<path d="M426.991 159C429.38 159.047 431.768 159.094 434.78 159.483C436.402 160.158 437.399 160.49 438.397 160.822C438.767 161.807 439.136 162.792 439.322 164.521C439.392 166.833 439.647 168.401 439.902 169.969C439.871 171.367 439.84 172.765 439.403 174.648C438.649 175.994 438.302 176.856 437.954 177.717C437.954 177.717 437.655 177.984 437.184 178.099C436.484 178.5 436.254 178.785 436.024 179.071C435.924 179.232 435.823 179.394 435.22 179.849C433.447 180.433 432.176 180.724 430.689 180.692C425.78 177.85 419.602 178.127 416.295 180.99C414.903 180.999 413.891 181.004 412.691 180.7C410.425 179.958 408.347 179.525 405.997 179.154C405.487 179.487 405.249 179.758 404.976 180.389C403.94 182.841 402.939 184.933 401.721 186.693C400.868 183.964 400.438 179.595 399.562 179.504C395.396 179.069 390.704 177.01 386.606 180.998C385.198 180.992 384.175 180.984 383.151 180.976C377.091 176.369 377.7 169.875 378.62 163.551C378.855 161.937 381.035 160.605 382.889 159.391C384.295 159.466 385.133 159.294 385.971 159.121C387.361 159.065 388.751 159.008 390.835 158.991C391.714 159.048 391.899 159.066 392.068 159.452C393.197 160.448 394.336 161.088 395.488 161.7C396.66 162.323 397.846 162.919 398.568 163.628C394.798 163.768 391.472 164.014 388.177 163.796C383.607 163.493 383.123 166.2 383.016 169.746C382.894 173.782 385.186 174.406 388.423 174.253C390.736 174.143 393.058 174.192 395.376 174.225C401.563 174.311 402.6 173.105 401.559 166.93C401.394 165.951 401.185 164.979 401.335 164.044C403.057 164.713 404.441 165.342 405.911 166.413C406.015 167.838 406.106 168.826 406.036 169.804C405.853 172.368 406.111 174.448 409.532 174.207C412.917 173.969 412.963 172.011 412.413 169.389C412.046 167.642 412.116 165.804 412.34 164.033C414.044 164.361 415.397 164.663 416.806 165.419C416.909 174.963 416.09 174.263 425.196 174.099C427.359 174.06 429.667 174.529 431.636 173.905C433.032 173.463 434.703 171.699 434.937 170.305C435.265 168.344 434.375 166.178 433.887 163.866C433.189 163.681 432.611 163.73 431.591 163.805C429.09 163.733 427.032 163.635 424.981 163.205C425.319 161.596 425.651 160.32 426.234 159.035C426.655 159.017 426.823 159.008 426.991 159Z" fill="#DD9C62"/>
<path d="M219.986 241.727C218.926 241.781 217.865 241.834 216.309 241.696C215.538 241.606 215.263 241.708 214.987 241.81C208.932 242.632 209.092 238.256 209.066 234.424C208.97 219.928 209.033 205.43 209.447 190.468C211.073 189.672 212.289 189.339 213.616 189.464C213.75 204.056 213.88 218.192 213.726 232.325C213.683 236.269 215.004 237.419 218.926 237.353C233.723 237.104 248.526 237.235 263.326 237.117C264.887 237.104 266.442 236.389 268.294 235.965C268.916 235.621 269.243 235.311 269.57 235.001C269.083 234.667 268.596 234.332 268.006 233.57C267.981 231.095 268.06 229.049 268.524 227.004C269.934 227.005 270.96 227.003 271.986 227.002C272.119 229.757 272.551 232.537 272.326 235.263C271.821 241.405 271.039 241.957 264.142 241.553C261.974 241.465 260.489 241.654 259.003 241.842C256.956 241.896 254.91 241.949 252.189 241.694C250.012 241.529 248.509 241.673 247.007 241.816C245.94 241.842 244.872 241.867 243.312 241.686C242.542 241.575 242.264 241.67 241.986 241.765C235.303 241.792 228.619 241.818 221.374 241.638C220.537 241.53 220.262 241.629 219.986 241.727Z" fill="#428A97"/>
<path d="M117.843 338.369C129.8 325.627 144.902 319.437 161.969 318.162C178.437 316.931 194.341 319.862 209.593 327.435C208.782 328.915 207.774 329.829 206.374 330.658C200.455 328.862 195.012 326.774 189.385 325.507C170.809 321.325 152.468 321.228 135.427 331.131C129.611 334.51 124.492 339.089 119.031 342.71C118.62 340.99 118.231 339.679 117.843 338.369Z" fill="#487790"/>
<path d="M375.126 347.285C374.505 348.078 373.885 348.872 372.675 349.797C371.176 348.863 370.267 347.797 369.562 346.428C375.15 339.986 375.454 335.304 370.833 327.903C370.418 327.455 370.101 327.272 369.448 327.009C367.401 326.238 365.689 325.548 363.838 324.658C363.148 324.545 362.597 324.631 361.641 324.779C358.691 325.319 356.145 325.797 353.224 326.22C352.238 326.787 351.628 327.41 350.839 328.296C349.199 329.416 347.737 330.272 345.905 331.113C344.369 332.088 343.204 333.078 341.887 334.349C340.489 335.422 339.242 336.214 337.777 337.076C337.282 337.299 337.084 337.524 336.783 338.112C327.481 344.309 318.363 350.212 308.944 355.917C308.397 355.053 308.151 354.388 308.075 353.436C316.411 347.399 324.578 341.649 333.019 335.843C333.519 335.506 333.746 335.226 333.986 334.972C333.998 334.999 333.947 334.971 334.177 334.897C334.699 334.654 334.903 334.411 335.222 333.834C337.266 332.331 339.108 331.089 341.136 330.109C341.801 329.735 342.28 329.098 342.969 328.198C346.8 325.646 350.422 323.358 355.066 320.423C351.913 319.322 349.96 318.64 348.026 317.639C348.036 316.073 348.028 314.826 348.02 313.58C349.42 313.704 350.819 313.829 352.819 314.286C353.793 314.655 354.165 314.692 354.537 314.729C359.419 316.908 364.28 319.137 369.188 321.257C377.97 325.052 381.445 334.974 376.667 344.742C375.785 345.843 375.455 346.564 375.126 347.285Z" fill="#468197"/>
<path d="M82.8056 273.7C75.4661 273.748 68.1266 273.796 60.085 273.585C56.793 272.936 54.2032 272.544 51.6133 272.152C47.56 270.459 48.1804 267.067 48.9721 263.236C49.0896 261.461 48.8005 260.212 48.5114 258.962C48.0987 257.866 47.6861 256.77 47.3961 255.208C47.3622 254.494 47.2057 254.248 47.0492 254.001C47.0492 254.001 46.878 253.648 46.8798 253.218C46.8077 252.468 46.6329 252.221 46.3571 252.045C45.1109 248.005 43.8647 243.964 43.0529 239.481C44.5973 239.005 45.7073 238.972 46.881 239.339C48.373 244.684 50.0304 249.578 51.1498 254.593C51.9145 258.018 53.537 259.485 57.1114 259.149C57.8464 259.075 58.4442 258.774 59.4624 258.344C66.9159 257.431 73.9489 256.646 80.9869 256.256C80.9854 257.7 80.9789 258.75 80.9724 259.799C72.9328 261.123 64.8776 262.362 56.8691 263.852C55.5295 264.102 54.3928 265.441 53.1623 266.276C54.4678 267.073 55.7511 268.518 57.0822 268.563C66.4023 268.882 75.7321 268.913 85.0589 269.03C86.3915 269.047 87.7976 268.764 89.0378 269.103C90.44 269.486 91.6933 270.415 93.0113 271.106C91.6738 271.917 90.3362 272.728 88.1774 273.477C85.8392 273.509 84.3224 273.605 82.8056 273.7Z" fill="#86B163"/>
<path d="M301.974 162.983C307.053 157.752 311.747 152.042 317.389 147.512C319.827 145.554 324.2 145.749 327.733 145.476C332.24 145.128 336.466 145.937 339.754 140.872C342.652 136.408 349.153 137.021 352.951 140.82C356.861 144.731 356.832 150.73 352.885 154.601C348.882 158.528 343.044 158.488 339.075 154.508C333.191 148.607 322.195 148.821 316.447 154.873C313.246 158.245 309.918 161.497 306.32 164.581C304.653 163.901 303.314 163.442 301.974 162.983ZM348.024 152.487C351.013 151.21 352.099 148.693 350.772 146.037C349.966 144.423 347.587 142.583 345.995 142.654C344.374 142.726 342.243 144.718 341.419 146.401C339.892 149.52 342.295 151.89 348.024 152.487Z" fill="#53A99C"/>
<path d="M137.201 439.1C130.353 444.288 123.591 449.598 116.561 454.528C115.539 455.245 112.428 454.773 111.654 453.782C102.921 442.596 94.4555 431.201 85.9887 419.22C86.4444 417.576 86.8294 416.574 87.5491 415.657C89.7814 417.79 91.8603 419.699 93.5437 421.91C99.1575 429.283 104.575 436.805 110.173 444.19C114.857 450.371 114.899 450.293 121.186 445.452C125.758 441.932 130.399 438.502 135.04 435.375C135.78 436.846 136.491 437.973 137.201 439.1Z" fill="#405F84"/>
<path d="M227.437 415.211C215.511 413.331 203.616 411.212 191.647 409.658C183.793 408.639 175.833 408.437 167.358 407.69C166.534 407.632 166.272 407.753 166.011 407.873C164.659 408.158 163.307 408.443 161.512 408.25C161.047 406.852 161.025 405.932 161.224 404.893C161.63 404.501 161.814 404.227 162.198 403.822C162.399 403.691 162.861 403.557 162.861 403.557C162.861 403.557 163.332 403.652 163.642 403.702C164.296 403.543 164.641 403.333 165.392 403.03C175.034 403.623 184.345 403.782 193.485 405.113C208.716 407.331 223.838 410.299 239.007 413.362C239.007 414.868 239.006 415.963 239.006 417.058C235.924 416.68 232.841 416.301 229.148 415.621C228.17 415.283 227.804 415.247 227.437 415.211Z" fill="#3B6785"/>
<path d="M213.505 189.007C212.289 189.339 211.073 189.672 209.54 190.009C208.672 182.017 209.232 180.903 214.694 180.318C215.459 180.429 215.73 180.343 216.001 180.257C218.372 180.174 220.742 180.091 223.649 180.219C224.46 180.325 224.734 180.219 225.008 180.114C225.451 180.065 225.894 180.016 226.976 180.291C232.41 180.441 237.204 180.267 241.998 180.093C242.748 180.054 243.498 180.014 244.717 180.188C245.459 180.287 245.733 180.173 246.008 180.06C247.074 180.012 248.14 179.964 249.908 180.255C256.405 180.438 262.2 180.283 267.995 180.127C268.562 180.155 269.13 180.183 269.967 180.669C270.704 181.444 271.17 181.76 271.636 182.077C271.826 185.743 272.016 189.409 271.862 193.729C271.708 198.27 271.897 202.158 272.087 206.045C272.14 208.074 272.192 210.104 271.759 212.564C270.237 213 269.202 213.005 268.06 212.551C267.9 204.789 267.655 197.48 267.87 190.185C267.989 186.106 266.675 184.687 262.494 184.755C247.89 184.991 233.279 184.984 218.674 184.834C215.425 184.801 213.597 185.585 213.505 189.007Z" fill="#489999"/>
<path d="M177.959 229.758C174.616 233.616 171.059 237.312 167.978 241.369C163.101 247.791 156.806 250.298 148.955 249.17C145.937 248.736 143.791 249.643 142.243 252.944C141.476 253.497 141.246 253.767 141.017 254.036C136.596 256.401 132.422 257.904 128.308 253.128C124.628 248.857 124.484 244.063 128.556 240.053C132.245 236.419 137.051 236.24 140.748 240.302C143.845 243.703 146.54 246.459 151.835 245.984C156.858 245.534 159.964 242.838 163.087 239.565C167.437 235.005 171.878 230.531 176.738 226.224C177.45 227.537 177.705 228.648 177.959 229.758ZM136.218 252.464C136.477 252.318 136.737 252.171 137.648 251.659C140.385 249.818 141.674 247.104 139.454 244.575C138.129 243.065 135.024 241.995 133.144 242.457C131.713 242.809 130.121 245.861 130.072 247.751C129.979 251.275 132.872 252.197 136.218 252.464Z" fill="#468197"/>
<path d="M163.178 146.931C164.632 148.531 166.087 150.131 167.767 152.305C168.152 154.388 169.216 156.452 166.105 155.96C161.506 150.613 155.554 149.454 149.018 150.81C146.987 151.231 144.702 152.197 143.32 153.657C138.824 158.41 132.723 159.027 128.39 154.732C124.133 150.511 124.125 144.545 128.372 140.58C132.756 136.487 138.911 137.393 143.301 142.252C144.718 143.82 147.218 144.909 149.364 145.21C153.286 145.76 157.313 145.559 161.782 146.093C162.571 146.653 162.875 146.792 163.178 146.931ZM136.193 142.901C134.271 143.817 131.188 144.349 130.725 145.748C130.16 147.457 131.214 150.933 132.637 151.726C134.092 152.537 137.614 151.735 138.86 150.378C141.31 147.71 140.177 144.898 136.193 142.901Z" fill="#50A797"/>
<path d="M232.997 50.2205C236.165 51.2095 239.362 52.1142 242.494 53.2074C247.066 54.8036 250.452 57.6783 250.585 62.8421C250.714 67.8526 247.947 71.0831 243.472 73.2962C241.716 74.1647 240.559 76.223 239.088 77.6983C238.235 78.5543 237.406 79.5965 236.351 80.0167C235.883 80.2032 234.239 79.0711 234.228 78.517C234.134 73.4943 230.086 73.7702 226.924 72.7418C221.65 71.0263 221.296 69.6334 224.697 65.4133C228.453 66.3487 232.105 67.9107 235.763 67.9272C238.001 67.9373 241.421 66.073 242.232 64.1662C243.6 60.9529 240.132 59.9174 237.643 58.9802C234.852 57.9295 232.029 56.9646 229.365 55.5768C230.901 55.2687 232.292 55.3463 233.928 55.4375C233.57 53.4328 233.284 51.8267 232.997 50.2205Z" fill="#46A89B"/>
<path d="M143.343 270.485C149.079 273.737 159.906 272.555 164.398 268.063C174.495 257.966 184.535 247.811 194.599 237.68C195.067 237.209 195.467 236.541 196.035 236.328C197.15 235.91 198.36 235.748 199.53 235.48C199.4 236.791 199.768 238.554 199.057 239.338C195.048 243.764 190.801 247.976 186.594 252.22C180.165 258.707 173.538 265.009 167.317 271.688C163.635 275.641 159.646 277.559 154.168 277.093C150.805 276.807 147.352 277.578 143.304 277.75C141.877 277.309 141.084 276.992 140.367 276.347C140.267 274.688 140.091 273.359 140.317 272.014C141.594 271.494 142.469 270.99 143.343 270.485Z" fill="#4E819A"/>
<path d="M278.852 333.919C283.697 329.488 288.31 324.762 293.46 320.72C297.597 317.473 302.512 317.41 307.628 319.051C309.407 319.621 311.776 318.759 313.767 318.177C318.257 316.865 322.68 315.319 327.334 314.213C325.385 314.993 323.446 315.621 323.624 318.622C319.564 320.852 315.581 322.572 312.23 325.123C305.023 330.61 298.14 336.525 291.05 341.839C290.539 340.346 290.103 339.28 289.811 337.947C295.143 333.327 300.332 328.975 305.983 324.234C300.098 321.422 296.428 324.028 292.892 326.759C289.894 329.074 287.068 331.612 283.824 334.073C282.996 334.745 282.51 335.395 282.016 336.03C282.009 336.016 282.044 336.031 281.716 335.984C280.542 335.265 279.697 334.592 278.852 333.919Z" fill="#50879E"/>
<path d="M278.548 334.044C279.697 334.592 280.542 335.265 281.549 336.271C280.324 338.059 278.938 339.513 277.182 340.979C275.173 342.502 271.106 337.47 270.612 343.089C259.952 341.355 249.709 339.578 239.431 338.024C228.368 336.351 216.964 336.277 206.766 330.743C207.774 329.829 208.782 328.915 209.882 327.661C221.438 329.557 232.901 331.802 244.369 334.018C246.314 334.394 248.283 334.647 250.905 335.311C252.549 335.696 253.53 335.726 254.511 335.756C255.147 335.803 255.783 335.851 256.855 336.215C257.846 336.448 258.401 336.366 258.956 336.284C262.062 336.844 265.169 337.405 268.846 338.292C269.782 338.663 270.147 338.707 270.512 338.751C273.09 337.224 275.667 335.697 278.548 334.044Z" fill="#4B7F96"/>
<path d="M239.029 267.011C238.991 265.609 238.953 264.208 239.267 262.099C239.747 258.962 239.612 256.478 240.113 254.128C240.36 252.969 241.779 252.059 242.668 251.037C242.801 257.725 242.935 264.414 242.723 271.849C242.548 275.384 242.718 278.173 242.889 280.962C242.935 281.418 242.982 281.875 242.802 282.757C242.523 283.286 242.397 283.436 242.428 283.485C242.546 283.672 242.715 283.825 242.866 283.991C242.764 287.05 243.53 289.415 246.482 291.214C248.032 292.157 248.678 294.585 249.571 296.79C249.278 297.567 249.38 297.811 249.716 297.97C248.449 300.61 247.183 303.25 245.338 306.03C244.512 306.399 244.265 306.628 244.018 306.856C238.59 308.366 234.802 307.052 232.634 302.909C230.085 298.038 231.238 294.089 235.684 290.227C237.186 288.922 237.815 286.613 239.203 284.122C239.374 281.321 239.185 279.161 238.996 277.001C238.95 274.625 238.904 272.249 239.155 269.29C239.311 268.141 239.17 267.576 239.029 267.011ZM245.086 295.574C242.758 294.984 240.364 293.815 238.133 294.072C237.154 294.185 235.628 297.395 235.944 298.855C236.311 300.559 238.151 302.606 239.828 303.232C243.65 304.661 246.119 301.412 245.086 295.574Z" fill="#467D95"/>
<path d="M232.867 50.0789C233.284 51.8267 233.57 53.4328 233.928 55.4375C232.292 55.3463 230.901 55.2687 229.14 55.3126C228.771 55.4341 228.788 55.381 228.771 55.0876C228.203 54.7498 227.653 54.7053 227.102 54.6608C220.593 49.8425 221.155 42.6884 228.484 38.2459C231.333 36.5186 235.335 35.9033 234.188 30.9628C234.078 30.4917 235.881 28.9229 236.426 29.0876C237.617 29.4466 239.508 30.6499 239.463 31.4109C239.214 35.637 241.959 36.1499 245.043 36.8787C247.308 37.4138 250.461 37.7384 249.28 41.5448C248.153 45.1715 245.604 43.8704 243.153 43.2829C240.905 42.7441 238.569 42.1841 236.29 42.2542C232.92 42.358 230.476 43.8483 231.161 48.5657C231.64 49.4737 231.997 49.6937 232.353 49.9138C232.353 49.9138 232.737 49.9374 232.867 50.0789Z" fill="#49B09A"/>
<path d="M161.003 405.012C161.025 405.932 161.047 406.852 161.097 408.233C159.947 409.058 158.769 409.422 157.17 409.633C156.502 409.632 156.254 409.784 156.007 409.936C153.014 411.255 152.618 412.759 154.85 415.507C159.866 421.68 159.709 422.016 153.56 426.817C148.345 430.888 143.098 434.918 137.533 439.033C136.491 437.973 135.78 436.846 135.157 435.129C135.729 434.331 136.213 434.123 136.973 433.841C137.493 433.489 137.738 433.21 138.144 432.64C142.959 428.671 147.612 424.992 152.294 421.291C148.748 415.831 145.546 410.902 142.652 405.899C143.353 405.134 143.746 404.444 144.504 403.775C146.411 405.139 147.955 406.481 149.343 407.689C151.466 407.013 153.432 406.386 155.702 405.777C156.331 405.574 156.656 405.353 157.27 404.992C158.384 404.665 159.207 404.478 160.149 404.462C160.48 404.825 160.725 404.951 161.003 405.012Z" fill="#3F6688"/>
<path d="M239.341 417.266C239.006 415.963 239.007 414.868 239.452 413.329C254.768 416.024 268.39 412.497 281.441 405.372C285.033 403.411 289.007 402.146 292.907 400.979C294.2 402.016 295.391 402.635 296.582 403.255C284.369 408.271 272.413 414.141 259.831 417.938C253.716 419.783 246.431 417.75 239.341 417.266Z" fill="#46718F"/>
<path d="M261.032 268.896C266.866 272.952 270.199 278.049 269.229 285.638C269.017 287.304 271.091 289.563 272.585 291.086C276.607 295.184 277.332 299.839 274.148 303.438C270.276 307.814 264.689 308.507 260.399 305.142C256.595 302.159 256.649 294.861 260.503 291.116C266.02 285.755 266.111 280.331 260.796 274.65C259.886 273.678 259.023 272.664 258.379 271.338C259.423 270.303 260.227 269.6 261.032 268.896ZM261.117 299.264C263.805 304.106 266.58 305.475 269.237 302.796C270.643 301.379 271.987 298.58 271.497 296.973C271.002 295.348 267.789 293.091 266.514 293.492C264.389 294.159 262.86 296.725 261.117 299.264Z" fill="#467D95"/>
<path d="M405.824 165.971C404.441 165.342 403.057 164.713 400.999 163.998C399.891 163.784 399.459 163.656 399.026 163.527C397.846 162.919 396.66 162.323 395.488 161.7C394.336 161.088 393.197 160.448 392.314 159.227C392.727 157.769 392.88 156.904 393.404 156.016C394.273 155.951 394.77 155.91 395.543 155.916C396.203 156.333 396.586 156.703 397.011 157.413C398.793 159.954 400.405 163.087 403.384 158.426C404.163 158.186 404.624 158.097 405.242 157.953C405.697 157.648 405.711 157.378 405.3 156.745C404.765 155.275 404.37 154.143 404.201 152.822C403.871 152.133 403.314 151.634 402.56 151.049C402.111 150.809 401.931 150.593 402.04 149.993C403.245 149.406 404.233 149.143 405.222 148.88C408.197 152.568 410.775 151.121 413.851 148.094C415.31 147.309 416.161 146.69 417.013 146.071C417.754 146.016 418.495 145.96 419.606 146.216C419.976 146.528 420.001 146.998 419.884 147.281C419.499 148.329 419.231 149.093 418.606 149.929C416.348 152.36 414.447 154.72 412.45 157.208C412.328 157.703 412.507 157.924 413.26 158.062C414.112 158.256 414.594 158.389 415.243 158.655C415.923 158.678 416.435 158.569 417.28 158.361C418.075 158.229 418.536 158.196 419.116 158.307C419.488 158.275 419.741 158.098 420.13 157.847C420.264 157.773 420.571 157.797 420.887 157.758C421.425 157.379 421.647 157.038 421.944 156.512C422.168 156.096 422.355 155.906 423.021 155.819C424.351 155.93 425.241 155.976 426.131 156.022C426.142 156.436 426.152 156.85 426.071 157.861C425.98 158.653 425.981 158.849 425.982 159.044C425.651 160.32 425.319 161.596 424.556 163.291C421.666 164.129 419.208 164.546 416.751 164.964C415.397 164.663 414.044 164.361 412.069 163.953C411.274 163.772 411.101 163.697 410.73 163.443C409.714 163.375 408.895 163.486 407.76 163.738C406.904 164.576 406.364 165.273 405.824 165.971Z" fill="#DE924B"/>
<path d="M260.122 18.9428C274.404 27.944 280.05 41.3439 280.111 57.7221C280.118 59.648 281.341 61.5693 282.257 63.7611C281.327 63.9802 280.078 64.1475 278.972 63.8242C277.728 63.4605 276.614 62.6543 275.443 62.0406C274.417 55.0314 274.162 47.7936 272.169 41.071C269.679 32.6694 263.112 26.9588 256.215 21.5787C257.608 20.4236 258.865 19.6832 260.122 18.9428Z" fill="#53A99C"/>
<path d="M64.982 393.009C61.6466 388.703 58.3992 384.325 54.9474 380.114C52.2553 376.83 52.6962 374.344 56.0627 371.856C63.1001 366.656 70.0124 361.286 77.6139 356.039C78.824 357.261 79.3964 358.431 79.761 359.888C72.8492 365.528 66.1453 370.879 59.185 376.436C62.2655 380.918 65.0471 384.965 67.595 389.218C66.5682 390.619 65.7751 391.814 64.982 393.009Z" fill="#3F6688"/>
<path d="M212.651 143.945C212.484 141.228 212.318 138.511 212.414 135.165C212.225 134.01 211.772 133.484 211.319 132.958C209.861 131.664 208.402 130.371 206.92 128.441C206.472 127.185 206.048 126.566 205.623 125.946C205.528 124.903 205.433 123.86 205.838 122.446C207.363 122.403 208.388 122.732 209.403 123.324C209.322 123.931 209.252 124.275 209.18 124.892C209.4 125.44 209.622 125.714 209.992 126.325C212.601 129.862 215.754 129.827 218.006 127.103C219.154 125.714 219.418 121.94 218.369 120.736C216.247 118.299 212.989 117.828 210.25 120.318C210.041 118.744 209.929 117.691 209.817 116.638C213.852 113.842 218.194 114.5 221.945 118.475C224.877 121.583 224.951 126.197 222.127 129.786C214.873 139.007 215.092 141.97 223.654 151.047C222.445 152.095 221.242 152.536 220.038 152.977C220.038 152.977 219.999 153 219.976 152.638C218.936 151.543 217.918 150.809 216.9 150.075C216.9 150.075 216.987 150.007 216.951 149.706C215.494 147.585 214.073 145.765 212.651 143.945Z" fill="#46A193"/>
<path d="M181.762 292.385C186.825 289.418 186.727 284.627 186.712 279.583C186.705 277.336 187.662 274.587 189.144 272.924C194.284 267.158 199.846 261.767 205.924 256.108C207.778 256.341 208.954 256.699 210.13 257.057C209.63 257.637 209.13 258.217 208.113 259.015C207.412 259.53 207.227 259.828 207.042 260.125C203.353 264.104 199.885 268.324 195.909 271.993C192.241 275.379 191.029 279.118 190.644 284.091C190.249 289.193 195.068 289.851 196.036 293.619C195.508 294.204 195.215 294.409 194.922 294.614C195.457 294.54 195.992 294.466 196.527 294.392C196.527 294.392 196.552 294.527 196.35 294.931C195.382 295.901 194.616 296.467 193.616 296.796C191.245 292.563 187.878 293.235 184.02 294.099C182.992 293.462 182.377 292.924 181.762 292.385Z" fill="#4E819A"/>
<path d="M412.878 181.009C413.891 181.004 414.903 180.999 416.383 181.453C416.877 185.701 416.915 189.49 416.93 193.279C416.979 205.186 416.976 205.186 428.765 205.172C428.432 206.674 428.238 207.897 428.044 209.12C423.307 209.287 418.571 209.571 413.833 209.597C404.777 209.647 395.719 209.55 386.32 209.048C385.977 208.409 385.977 208.237 386.44 208.052C391.344 207.668 395.783 207.297 400.366 206.911C400.509 206.895 400.797 206.921 401.182 207.086C404.584 207.548 408.027 210.144 410.466 205.439C411.234 203.415 411.991 201.627 412.102 199.801C412.483 193.544 412.637 187.274 412.878 181.009Z" fill="#DC9D6B"/>
<path d="M301.814 299.95C300.748 301.881 299.681 303.812 298.003 305.871C296.933 306.348 296.476 306.697 296.019 307.047C296.019 307.047 295.69 307.232 295.193 307.152C294.133 307.29 293.569 307.506 293.005 307.723C291.877 307.557 290.749 307.391 289.177 306.846C288.413 306.362 288.094 306.256 287.775 306.15C281.941 301.432 282.003 294.78 287.581 290.172C289.111 288.907 289.742 286.554 291.134 284.267C291.544 283.723 291.686 283.551 291.656 283.512C291.509 283.324 291.317 283.172 291.141 283.006C290.627 279.022 289.895 275.138 286.341 271.95C287.352 270.835 288.345 270.336 289.337 269.837C289.857 270.31 290.377 270.782 291.075 271.792C291.575 272.551 291.898 272.774 292.22 272.996C292.853 275.586 294.003 278.174 294.005 280.764C294.008 285.233 294.015 289.283 298.675 291.808C299.973 292.511 300.635 294.389 301.454 296.416C301.485 298.053 301.65 299.001 301.814 299.95ZM289.743 294.29C286.42 297.33 287.479 300.517 290.23 302.835C291.328 303.76 294.905 303.599 295.693 302.61C296.966 301.013 297.722 298.064 297.147 296.151C296.237 293.126 293.494 292.212 289.743 294.29Z" fill="#407A95"/>
<path d="M259.939 18.6488C258.865 19.6832 257.608 20.4236 256.067 21.2927C255.783 21.4213 255.796 21.3542 255.773 21.0014C253.859 20.0366 251.967 19.4247 250.075 18.8129C238.561 15.3845 227.381 15.8243 216.319 21.3824C215.548 19.8149 215.126 18.5556 214.704 17.2962C226.923 8.7895 245.965 9.23693 259.939 18.6488Z" fill="#56B19A"/>
<path d="M388.013 256.045C389.134 259.005 389.619 262.471 391.499 264.825C396.444 271.018 402.017 276.709 407.297 282.637C410.284 285.991 414.663 284.155 418.078 278.721C421.871 272.685 425.486 266.337 432.771 263.115C426.59 271.194 420.121 279.332 413.453 287.304C411.441 289.71 408.975 289.128 407.048 286.895C399.37 277.996 391.717 269.075 384.145 260.086C383.377 259.174 383.223 257.746 382.784 256.557C384.266 256.068 385.749 255.579 387.614 255.363C387.996 255.636 388.013 256.045 388.013 256.045Z" fill="#DD9C62"/>
<path d="M294.696 137.026C295.533 143.308 294.203 148.651 289.294 153.242C283.116 159.021 277.538 165.436 271.483 171.355C270.543 172.273 268.446 172.007 266.884 172.289C267.209 170.853 267.065 168.98 267.932 168.051C274.742 160.76 281.745 153.65 289.267 146.193C289.966 144.628 290.085 143.354 290.205 142.079C290.219 140.68 290.234 139.281 290.729 137.488C292.371 137.072 293.533 137.049 294.696 137.026Z" fill="#52A49D"/>
<path d="M229.099 262.022C228.662 263.66 228.658 265.63 227.704 266.871C225.304 269.99 222.425 272.736 219.831 275.711C215.357 280.842 215.672 286.368 220.611 290.937C224.102 294.168 224.661 298.307 221.592 302.678C220.31 302.546 219.595 302.118 219.003 301.359C220.533 294.831 217.572 292.259 210.722 293.969C209.928 293.016 209.471 292.113 209.013 291.21C209.013 291.21 209.191 290.915 209.728 290.896C210.844 290.241 211.423 289.604 212.002 288.967C212.182 287.905 212.362 286.844 212.889 285.301C213.048 284.171 212.862 283.523 212.676 282.875C212.604 281.523 212.533 280.171 212.942 278.296C214.235 276.392 215.048 275.011 215.861 273.63C218.085 271.228 220.517 268.981 222.457 266.367C223.643 264.769 224.072 262.609 225.281 260.51C226.846 260.886 227.973 261.454 229.099 262.022Z" fill="#468197"/>
<path d="M300.894 228.051C300.585 227.901 300.275 227.75 300.179 227.221C301.262 226.553 302.132 226.263 303.368 225.942C303.974 225.868 304.215 225.826 304.456 225.784C307.256 228.487 310.056 231.191 313.087 234.513C313.705 235.367 314.092 235.602 314.479 235.837C314.99 236.255 315.5 236.672 316.149 237.655C316.648 238.436 317.007 238.652 317.366 238.868C317.885 239.338 318.404 239.807 319.013 240.885C319.792 241.95 320.482 242.408 321.171 242.866C321.171 242.866 321.095 242.934 321.183 243.153C321.591 243.553 321.911 243.733 322.231 243.913C322.967 244.266 323.703 244.619 324.928 245.289C326.27 245.465 327.124 245.325 327.977 245.184C328.737 245.149 329.497 245.114 330.729 245.269C331.202 245.46 331.655 245.527 331.655 245.527L331.992 245.179C333.444 244.887 334.897 244.595 337.037 244.115C338.163 242.984 338.602 242.042 339.041 241.099C339.204 240.794 339.367 240.488 340.167 240.118C341.606 240.836 342.407 241.619 343.001 242.674C339.681 246.934 340.934 249.872 345.083 252.285C345.44 252.37 345.716 252.304 346.344 252.176C347.409 252.043 348.122 251.973 349.182 251.976C350.013 252.992 350.496 253.935 350.979 254.878C350.686 255.034 350.393 255.189 349.402 255.244C346.476 254.781 344.247 254.417 341.708 254.069C341.197 254.133 340.995 254.181 340.794 254.229C340.794 254.229 340.841 254.045 340.774 253.864C340.381 253.526 340.055 253.37 339.729 253.214C339.729 253.214 339.915 253.232 339.875 252.907C339.217 252.059 338.598 251.536 337.979 251.012C337.488 250.555 336.997 250.097 336.141 249.161C334.856 248.773 333.936 248.862 333.016 248.952C332.561 248.991 332.106 249.031 331.02 248.717C327.476 248.293 324.564 248.22 321.653 248.148C321.18 247.919 320.707 247.69 320.087 246.87C318.912 245.541 317.884 244.803 316.857 244.066C315.646 242.928 314.436 241.791 313.076 240.019C311.929 238.602 310.931 237.818 309.933 237.035C308.369 235.561 306.805 234.088 305.03 232.089C304.642 231.279 304.39 231.089 304.065 230.997C303.786 230.796 303.506 230.596 303.074 229.834C302.246 228.865 301.57 228.458 300.894 228.051Z" fill="#428A97"/>
<path d="M333.981 272.222C335.366 271.197 337.029 270.399 338.085 269.106C341.199 265.289 345.056 263.956 349.583 265.638C353.657 267.153 356.101 270.286 355.855 274.831C355.614 279.281 353.107 282.34 348.919 283.623C344.384 285.011 340.884 283.285 338.231 279.37C337.392 278.133 335.886 277.349 334.349 275.86C334.001 274.315 333.991 273.269 333.981 272.222ZM351.611 273.791C350.684 270.755 348.631 268.477 345.53 269.543C343.668 270.184 341.53 272.725 341.325 274.609C341.166 276.066 343.531 278.714 345.275 279.273C348.937 280.449 351.081 278.168 351.611 273.791Z" fill="#558C9E"/>
<path d="M323.987 318.489C323.446 315.621 325.385 314.993 327.763 314.294C328.795 314.024 329.77 313.716 330.381 314.058C334.716 316.484 338.964 315.638 343.728 314.171C344.489 314.239 344.755 314.097 345.02 313.955C345.875 313.73 346.73 313.504 347.803 313.429C348.028 314.826 348.036 316.073 347.652 317.734C343.196 319.875 338.88 321.18 335.128 323.426C329.61 326.73 324.494 330.707 319.125 333.995C318.651 332.583 318.261 331.573 318.069 330.309C322.503 326.805 326.737 323.555 332.111 319.431C328.414 319.002 326.201 318.745 323.987 318.489Z" fill="#5A93A6"/>
<path d="M311.981 269.022C302.836 260.082 293.652 251.182 284.584 242.165C282.977 240.566 280.56 238.627 284.5 235.762C294.274 245.38 304.127 255.075 314.001 265.448C313.341 267.092 312.661 268.057 311.981 269.022Z" fill="#5391A2"/>
<path d="M425.384 253.227C424.585 252.385 423.2 251.123 423.162 249.82C422.941 242.364 423.036 234.899 423.034 227.436C423.033 224.584 422.631 222.962 418.771 223.327C412.8 223.891 406.708 223.106 400.718 223.56C399.376 223.662 397.279 226.467 397.183 228.123C396.781 235.065 397.055 242.044 396.968 249.007C396.948 250.593 396.478 252.174 395.884 253.927C395.507 244.653 395.286 235.204 395.578 225.77C395.63 224.073 397.745 221.052 398.996 221.005C407.198 220.698 415.423 221.04 423.932 221.71C424.504 222.504 424.785 222.758 425.066 223.012C425.184 232.938 425.302 242.863 425.384 253.227Z" fill="#DC9D6B"/>
<path d="M260.758 147.445C265.823 140.301 265.465 136.989 259.858 130.401C258.326 128.601 258.028 125.751 257.618 123.183C259.273 123.662 260.475 124.341 261.909 125.295C266.105 129.911 266.997 129.945 271.909 125.929C273.434 124.969 274.616 124.011 275.799 123.053C274.753 125.827 273.764 128.624 272.645 131.369C271.664 133.775 269.941 136.042 269.616 138.512C269.115 142.317 269.266 146.145 265.151 148.962C264.437 149.543 264.262 149.845 264.088 150.147C264.088 150.147 264.072 150.026 263.697 150.029C262.467 149.17 261.613 148.307 260.758 147.445Z" fill="#50A797"/>
<path d="M296.921 403.207C295.391 402.635 294.2 402.016 293.037 400.676C304.884 393.901 317.496 389.236 327.8 380.62C328.865 381.792 329.749 382.558 330.633 383.324C321.179 392.745 309.103 397.756 296.921 403.207Z" fill="#407A95"/>
<path d="M333.457 218.224C328.936 221.906 323.691 221.909 320.53 217.314C318.111 213.798 315.309 213.338 311.649 213.461C307.011 213.617 302.361 213.435 297.356 212.831C296.995 211.2 296.995 210.137 296.994 209.075C302.602 209.038 308.218 209.156 313.814 208.873C315.582 208.784 317.296 207.621 319.552 207.036C320.821 207.461 321.574 207.799 322.29 208.525C323.416 211.187 324.061 214.402 325.916 215.425C327.273 216.175 330.22 214.046 332.573 213.557C332.944 215.352 333.2 216.788 333.457 218.224Z" fill="#4F9BA0"/>
<path d="M330.945 383.251C329.749 382.558 328.865 381.792 327.963 380.358C337.634 372.034 347.324 364.378 357.024 357.15C357.933 358.481 358.833 359.384 359.733 360.287C350.241 367.917 340.749 375.547 330.945 383.251Z" fill="#4B7F96"/>
<path d="M79.9688 359.601C79.3964 358.431 78.824 357.261 77.9316 355.939C82.3804 351.95 87.2951 348.279 91.8735 344.228C95.7941 340.759 98.5447 341.65 101.141 345.668C102.015 347.021 103.243 348.144 104.7 349.822C107.424 347.43 109.874 345.278 112.633 343.383C110.799 345.763 108.685 347.914 106.504 349.995C105.047 351.385 103.495 352.675 101.692 353.85C96.5474 347.06 96.583 347.105 90.3011 352.008C86.933 354.636 83.4177 357.076 79.9688 359.601Z" fill="#487790"/>
<path d="M162.385 215.157C160.357 219.008 157.194 222.081 152.896 220.631C149.861 219.606 146.686 216.779 145.205 213.913C143.245 210.119 144.853 206.126 148.359 203.295C152.422 200.015 156.869 200.568 161.036 205.525C160.368 207.107 159.749 208.046 158.89 208.713C156.328 207.858 153.934 206.684 151.715 206.952C150.688 207.076 149.063 210.242 149.4 211.614C149.811 213.288 151.8 215.284 153.479 215.726C154.968 216.118 156.967 214.574 159.124 213.944C160.467 214.387 161.426 214.772 162.385 215.157Z" fill="#428A97"/>
<path d="M244.086 132.607C243.817 142.156 243.548 151.705 242.821 161.323C242.158 158.923 241.953 156.455 241.642 152.696C240.429 155.595 239.717 157.296 239.004 158.998C238.73 152.817 238.513 146.632 238.152 140.455C238.011 138.049 237.546 135.661 237.141 132.573C237.071 130.512 237.088 129.143 237.46 127.858C239.873 127.955 241.932 127.968 243.981 128.441C244.009 130.137 244.048 131.372 244.086 132.607Z" fill="#5DA9A2"/>
<path d="M143.269 270.157C142.469 270.99 141.594 271.494 140.011 271.802C136.795 271.311 134.166 270.476 131.842 270.998C130.974 271.193 129.809 275.427 130.55 276.281C131.972 277.919 134.661 278.458 136.915 279.694C137.334 279.615 137.662 279.295 138.133 278.741C138.949 277.897 139.62 277.286 140.291 276.675C141.084 276.992 141.877 277.309 142.942 277.96C141.778 279.868 140.34 281.441 138.344 283.063C137.48 283.186 137.241 283.354 137.067 283.615C131.161 284.078 127.288 281.966 125.914 277.531C124.566 273.182 126.699 268.023 130.685 265.99C135.129 263.723 139.441 265.046 143.269 270.157Z" fill="#487790"/>
<path d="M195.239 69.9588C195.093 69.6209 194.947 69.2831 194.856 68.3206C194.475 66.775 194.039 65.8539 193.603 64.9329C193.454 64.5026 193.304 64.0723 193.402 63.1983C194.053 62.491 194.458 62.2274 195.361 61.9092C196.187 61.7827 196.513 61.7108 196.84 61.639C199.411 74.5693 207.73 83.0744 218.766 90.2703C219.706 92.4106 220.34 94.0032 220.975 95.5958C210.483 92.3661 203.346 85.1781 197.898 75.2941C197.025 73.0313 196.132 71.495 195.239 69.9588Z" fill="#46A193"/>
<path d="M337.403 172.138C339.743 166.563 344.598 164.303 349.664 166.431C354.932 168.645 357.336 174.246 355.095 179.092C352.57 184.553 347.374 186.281 341.527 183.333C342.644 182.809 343.61 182.606 344.726 182.372C344.04 181.188 343.583 180.401 343.531 179.719C347.212 180.693 350.221 180.072 350.856 176.508C351.166 174.77 349.938 171.787 348.477 170.905C345.264 168.966 342.796 171.036 340.855 173.904C339.514 173.249 338.458 172.693 337.403 172.138Z" fill="#52A49D"/>
<path d="M161.911 181.207C157.371 176.592 151.599 178.064 146.169 178.201C145.218 178.225 144.097 179.592 143.411 180.586C141.023 184.042 137.947 185.679 133.379 184.173C133.021 182.404 133.005 181.25 133.398 180.093C138.423 180.65 139.996 178.02 140.536 173.919C141.914 173.239 142.977 172.613 144.04 171.988C148.123 172.304 152.262 172.313 156.267 173.05C158.635 173.486 160.791 175.075 162.852 176.561C162.412 178.387 162.161 179.797 161.911 181.207Z" fill="#52A49D"/>
<path d="M237.105 127.775C237.088 129.143 237.071 130.512 236.957 132.228C236.7 132.506 236.541 132.436 236.044 131.942C235.355 131.397 235.004 131.275 234.653 131.153C229.716 128.342 230.218 121.043 233.789 117.246C237.136 113.687 242.959 113.489 246.844 116.783C251.088 120.381 250.165 127.396 244.442 132.466C244.048 131.372 244.009 130.137 244.276 128.244C244.79 125.724 245.848 123.117 245.016 122.171C243.661 120.628 240.641 118.946 239.087 119.493C235.034 120.919 235.443 124.424 237.105 127.775Z" fill="#46A193"/>
<path d="M51.7465 272.472C54.2032 272.544 56.793 272.936 59.6429 273.586C60.745 274.836 61.4825 275.946 62.4488 276.797C65.4873 279.471 65.7369 282.545 63.2867 285.491C61.0604 288.168 57.934 288.918 54.8649 286.886C51.772 284.838 50.5602 281.928 52.4106 278.339C53.0878 277.025 53.9255 275.794 54.6494 274.593C53.6909 273.97 52.7853 273.381 51.7465 272.472Z" fill="#8EB369"/>
<path d="M239.999 94.0975C249.485 92.4332 258.146 89.1816 264.903 81.854C265.652 81.0416 267.682 81.4099 269.117 81.2306C268.894 82.6942 269.208 84.7158 268.36 85.5319C262.329 91.3406 255.539 95.9527 246.485 97.0781C243.959 96.1834 241.979 95.5892 239.999 94.7706C239.999 94.5462 239.999 94.0975 239.999 94.0975Z" fill="#52A49D"/>
<path d="M184.466 132.24C179.773 129.451 177.966 125.804 179.229 121.239C180.434 116.887 183.579 114.651 187.921 114.246C192.792 113.792 195.535 116.539 196.953 121.519C195.711 122.417 194.507 122.695 193.141 122.623C190.925 121.266 188.827 119.466 186.833 119.575C185.796 119.632 184.021 123.154 184.208 124.941C184.548 128.202 187.248 129.314 190.76 128.806C191.11 129.503 191.313 130.482 191.244 130.501C189.001 131.138 186.732 131.682 184.466 132.24Z" fill="#50A797"/>
<path d="M196.874 61.3722C196.513 61.7108 196.187 61.7827 195.358 61.5747C194.053 58.5427 193.251 55.7905 192.449 53.0383C192.35 51.9358 192.251 50.8332 192.394 49.1097C191.427 48.3289 190.218 48.1692 188.685 47.9704C188.518 46.2207 188.675 44.5101 188.832 42.7995C188.832 42.7995 188.917 42.8709 189.132 42.8061C189.524 42.431 189.701 42.1206 189.878 41.8103C189.878 41.8103 189.907 41.9027 190.136 41.8083C190.543 41.3856 190.722 41.0573 190.901 40.7291C191.357 40.1887 191.813 39.6483 192.972 39.0206C194.919 38.8818 196.163 38.8303 197.407 38.7788C197.669 38.8535 197.878 39.002 198.18 39.7206C198.692 40.4086 199.058 40.6002 199.423 40.7917C199.69 40.8668 199.897 41.0213 200.161 41.7415C200.6 42.4465 200.923 42.6651 201.246 42.8838C201.533 42.9928 201.751 43.1813 202.052 43.9136C202.494 44.5716 202.784 44.7651 203.075 44.9585C203.075 44.9585 202.998 44.9806 203.035 45.3168C203.08 47.4678 207.986 50.109 202.18 50.9433C200.962 49.8833 199.743 48.8232 198.524 47.7631C197.98 47.7859 197.435 47.8086 196.891 47.8314C196.66 50.814 196.43 53.7967 196.172 57.7104C196.201 58.9782 196.255 59.3149 196.31 59.6516C196.509 60.1362 196.709 60.6208 196.874 61.3722Z" fill="#3BAB94"/>
<path d="M101.985 354.01C103.495 352.675 105.047 351.385 106.504 349.995C108.685 347.914 110.799 345.763 112.957 343.289C114.392 341.518 115.811 340.1 117.536 338.525C118.231 339.679 118.62 340.99 118.872 343.006C116.774 345.179 114.813 346.647 112.848 348.111C108.135 351.623 107.8 353.925 111.191 358.299C113.278 360.99 115.21 363.801 117.117 366.95C116.267 368.412 115.51 369.482 114.469 370.35C110.709 365.602 107.236 361.056 103.806 356.144C103.229 355.19 102.609 354.602 101.993 354.008C101.999 354.001 101.985 354.01 101.985 354.01Z" fill="#356483"/>
<path d="M65.0517 393.344C65.7751 391.814 66.5682 390.619 67.7697 389.521C74.5235 398.269 80.869 406.921 87.2145 415.573C86.8294 416.574 86.4444 417.576 86.0282 418.987C79.7886 411.693 73.5831 403.988 67.3677 396.291C66.6467 395.399 65.8715 394.55 65.0517 393.344Z" fill="#356483"/>
<path d="M143.98 171.647C142.977 172.613 141.914 173.239 140.311 173.644C136.274 169.597 133.613 169.06 131.368 172.045C129.034 175.149 129.349 178.037 132.99 180.097C133.005 181.25 133.021 182.404 133.044 184C128.264 183.189 125.037 180.429 125.276 175.171C125.481 170.655 127.865 167.284 132.337 166.011C137.562 164.524 141.264 166.9 143.98 171.647Z" fill="#459B91"/>
<path d="M289.22 269.515C288.345 270.336 287.352 270.835 286.198 271.637C279.93 265.907 273.749 259.945 267.807 253.754C267.026 252.94 267.464 250.955 267.337 249.512C268.606 249.894 270.256 249.893 271.085 250.718C277.183 256.784 283.118 263.014 289.22 269.515Z" fill="#558C9E"/>
<path d="M87.919 275.124C92.8008 279.327 93.26 284.982 88.5029 286.597C86.222 287.371 82.154 286.78 80.6661 285.17C77.6595 281.917 78.7682 278.12 83.1192 275.213C85.1832 275.069 86.5511 275.097 87.919 275.124Z" fill="#8EB369"/>
<path d="M337.002 172.327C338.458 172.693 339.514 173.249 340.907 174.242C341.871 176.325 342.499 177.969 343.127 179.614C343.583 180.401 344.04 181.188 344.726 182.372C343.61 182.606 342.644 182.809 341.314 183.022C340.949 183.032 340.986 183.009 340.869 182.794C340.457 182.406 340.162 182.232 339.866 182.058C339.866 182.058 339.954 182.045 339.853 181.836C339.462 181.428 339.171 181.229 338.881 181.029C333.827 175.478 327.744 177.999 321.34 178.692C320.145 177.646 319.483 176.766 318.821 175.887C320.952 174.925 323.005 173.458 325.232 173.114C328.963 172.538 332.805 172.678 337.002 172.327Z" fill="#53A99C"/>
<path d="M181.448 292.614C182.377 292.924 182.992 293.462 183.952 294.456C182.93 299.968 184.046 302.679 187.807 303.437C191.259 304.133 193.31 301.961 193.85 297.034C194.616 296.467 195.382 295.901 196.363 294.999C197.839 298.901 198.477 303.583 194.123 305.903C191.346 307.382 187.14 307.497 184.003 306.646C180.17 305.607 178.721 301.763 179.159 297.802C179.348 296.097 180.449 294.493 181.448 292.614Z" fill="#487790"/>
<path d="M165.415 215C163.135 214.811 161.473 214.431 159.258 213.592C158.856 211.788 159.007 210.441 159.157 209.095C160.23 208.168 161.302 207.24 162.626 206C166.262 208.524 171.008 209.257 176.838 209.069C184.181 208.833 191.564 208.999 199.934 209.354C200.223 210.847 199.508 211.978 198.792 213.109C191.121 213.249 183.437 213.282 175.785 213.579C172.5 213.706 169.281 214.382 165.415 215Z" fill="#4F9BA0"/>
<path d="M193.303 122.973C194.507 122.695 195.711 122.417 197.131 121.81C197.576 122.59 197.806 123.7 197.507 124.946C196.615 125.208 196.252 125.333 195.89 125.458C196.389 125.66 196.888 125.863 197.387 126.066C196.991 127.289 196.975 129.095 196.137 129.644C190.106 133.594 191.633 139.534 191.335 145.519C189.58 145.622 188.213 145.329 186.845 145.037C186.21 141.001 185.574 136.966 184.702 132.586C186.732 131.682 189.001 131.138 191.244 130.501C191.313 130.482 191.11 129.503 191.037 128.564C191.794 126.427 192.548 124.7 193.303 122.973Z" fill="#5CB1A3"/>
<path d="M220.163 153.308C221.242 152.536 222.445 152.095 223.807 151.355C230.195 154.182 230.083 159.971 229.719 165.594C229.544 168.301 231.613 172.409 226.83 173.008C226.371 173.066 224.629 168.195 224.652 165.622C224.693 160.934 224.12 156.779 220.163 153.308Z" fill="#5DA9A2"/>
<path d="M178.304 229.667C177.705 228.648 177.45 227.537 177.056 226.104C178.759 224.594 180.529 222.553 182.461 222.386C187.712 221.932 193.037 222.143 198.317 222.401C199.427 222.455 200.472 223.836 201.547 224.607C200.461 225.387 199.423 226.744 198.279 226.841C194.833 227.132 191.3 226.586 187.887 227.027C184.75 227.431 181.724 228.693 178.304 229.667Z" fill="#5A93A6"/>
<path d="M186.822 145.407C188.213 145.329 189.58 145.622 191.287 145.981C195.343 149.768 199.06 153.488 202.995 157.755C203.478 158.534 203.742 158.766 204.006 158.997C205.963 161.047 207.92 163.097 209.828 165.738C208.364 166.297 206.948 166.265 205.533 166.233C199.611 160.336 193.662 154.465 187.807 148.503C187.188 147.872 187.122 146.699 186.822 145.407Z" fill="#459B91"/>
<path d="M285.817 117.694C291.01 113.09 296.125 113.104 300.119 117.735C303.977 122.207 303.097 127.385 297.34 131.639C296.394 130.412 295.808 129.517 295.476 128.352C298.411 125.416 298.88 122.485 295.778 120.057C292.666 117.621 289.943 118.947 287.642 121.758C286.866 120.251 286.342 118.972 285.817 117.694Z" fill="#50A797"/>
<path d="M305.679 194.958C303.252 196.637 300.995 199.333 298.36 199.776C293.506 200.592 288.422 200.245 283.452 200.008C282.264 199.952 281.147 198.42 279.997 197.567C281.254 196.793 282.466 195.454 283.775 195.351C287.74 195.038 291.747 195.319 295.727 195.129C297.488 195.045 299.222 194.385 301.557 194.122C303.324 194.49 304.502 194.724 305.679 194.958Z" fill="#5DA9A2"/>
<path d="M333.776 218.102C333.2 216.788 332.944 215.352 332.642 213.229C332.279 205.773 328.887 204.319 322.327 208.137C321.574 207.799 320.821 207.461 319.835 206.764C322.908 200.987 328.264 199.583 332.914 202.916C337.905 206.494 338.418 213.024 333.776 218.102Z" fill="#489999"/>
<path d="M305.93 194.715C304.502 194.724 303.324 194.49 301.932 193.947C307.21 187.791 312.703 181.944 318.509 175.992C319.483 176.766 320.145 177.646 320.947 178.835C316.118 184.253 311.15 189.363 305.93 194.715Z" fill="#489999"/>
<path d="M260.459 147.625C261.613 148.307 262.467 149.17 263.731 150.079C263.656 150.779 263.298 151.61 262.668 152.056C257.201 155.922 255.997 161.282 256.582 167.606C256.771 169.647 258.029 173.52 253.33 172.362C254.021 169.257 254.581 166.531 255.14 163.804C254.559 163.746 253.977 163.687 253.395 163.629C253.083 166.012 252.772 168.395 252.46 170.779C252.222 167.418 251.984 164.058 252.272 160.348C253.39 159.649 253.981 159.299 254.572 158.949C253.788 158.644 253.004 158.34 252.22 158.035C254.867 154.625 257.514 151.215 260.459 147.625Z" fill="#5DA9A2"/>
<path d="M179.067 192.968C182.821 193.915 186.536 195.104 190.344 195.721C192.76 196.113 195.351 195.372 197.79 195.696C199.063 195.865 200.176 197.238 201.361 198.067C200.231 198.749 199.124 199.973 197.969 200.019C192.822 200.223 187.564 200.677 182.544 199.844C179.821 199.392 177.496 196.54 175.224 194.416C176.661 193.696 177.864 193.332 179.067 192.968Z" fill="#4F9BA0"/>
<path d="M295.222 128.622C295.808 129.517 296.394 130.412 297.007 131.737C296.345 133.573 295.655 134.977 294.83 136.704C293.533 137.049 292.371 137.072 290.766 137.144C288.775 135.027 287.107 132.935 285.721 130.67C284.741 129.068 284.144 127.232 283.749 125.155C283.983 124.499 283.844 124.188 283.704 123.878C284.198 121.951 284.691 120.024 285.501 117.895C286.342 118.972 286.866 120.251 287.66 122.162C287.694 128.072 290.769 129.209 295.222 128.622Z" fill="#5CB1A3"/>
<path d="M303.002 225.973C302.132 226.263 301.262 226.553 300.07 226.979C294.955 227.06 290.147 227.206 285.376 226.849C283.574 226.714 281.86 225.416 280.106 224.648C281.899 223.789 283.64 222.354 285.495 222.188C289.595 221.82 293.763 221.922 297.881 222.182C299.553 222.288 301.168 223.304 302.937 224.579C303.044 225.492 303.023 225.733 303.002 225.973Z" fill="#4F9BA0"/>
<path d="M351.321 254.841C350.496 253.935 350.013 252.992 349.38 251.692C351.385 249.479 352.717 247.404 350.979 244.553C349.067 241.417 346.198 241.68 343.209 242.401C342.407 241.619 341.606 240.836 340.422 240.034C344.28 236.181 349.363 236.245 353.016 240.177C357.368 244.861 356.894 249.983 351.321 254.841Z" fill="#5A93A6"/>
<path d="M55.9809 234.008C64.0131 233.952 72.0452 233.896 80.5455 234.301C82.3499 235.897 83.6862 237.033 84.712 238.367C74.9347 238.4 65.4679 238.232 55.9963 237.659C55.9881 236.172 55.9845 235.09 55.9809 234.008Z" fill="#92B873"/>
<path d="M208.704 291.341C209.471 292.113 209.928 293.016 210.573 294.29C208.44 297.178 208.684 299.779 210.996 301.981C213.563 304.426 216.321 303.783 218.879 301.69C219.595 302.118 220.31 302.546 221.364 302.979C219.526 307.453 215.571 309.069 211.286 307.239C206.299 305.109 203.85 299.775 205.868 295.085C206.437 293.763 207.537 292.67 208.704 291.341Z" fill="#4E819A"/>
<path d="M178.921 192.666C177.864 193.332 176.661 193.696 175.074 194.101C170.527 190.026 166.363 185.91 162.055 181.501C162.161 179.797 162.412 178.387 162.994 176.904C168.476 182.008 173.626 187.186 178.921 192.666Z" fill="#459B91"/>
<path d="M430.905 181.015C432.176 180.724 433.447 180.433 435.016 180.048C435.297 187.73 435.279 195.506 434.772 203.341C434.011 202.07 433.739 200.741 433.39 199.036C432.253 199.901 431.521 200.459 430.6 200.721C430.577 193.955 430.741 187.485 430.905 181.015Z" fill="#DDA474"/>
<path d="M275.305 62.342C276.614 62.6543 277.728 63.4605 278.972 63.8242C280.078 64.1475 281.327 63.9802 282.702 63.8012C283.712 62.7577 284.532 61.9425 285.67 61.5612C285.084 63.6254 284.163 65.2464 283.281 66.8889C282.662 68.0423 282.098 69.2248 281.509 70.3943C281.509 70.3943 281.457 70.3389 281.118 70.3548C280.508 70.8965 280.237 71.4223 279.967 71.9482C279.967 71.9482 279.995 72.0025 279.548 71.9831C277.407 71.9705 275.713 71.9773 274.019 71.984C274.019 71.984 274 72.0003 273.922 71.7635C273.659 71.2426 273.403 71.0573 273.076 70.9709C272.188 70.0839 271.299 69.1969 270.219 67.6814C270.408 65.363 266.937 62.8351 271.132 61.9745C271.275 62.2714 271.47 62.5308 271.982 63.2234C273.202 63.5637 274.152 63.4332 275.103 63.3028C275.125 63.083 275.146 62.8632 275.305 62.342Z" fill="#3BAB94"/>
<path d="M275.856 122.681C274.616 124.011 273.434 124.969 271.963 125.545C272.072 121.657 270.649 119.231 267.079 118.914C262.849 118.537 262.076 121.733 261.676 125.02C260.475 124.341 259.273 123.662 257.737 122.833C257.403 122.683 257.428 122.406 257.853 122.094C258.496 120.823 258.714 119.863 258.932 118.903C258.932 118.903 258.955 118.994 259.277 118.936C260.033 118.144 260.468 117.409 260.903 116.674C267.542 111.919 273.835 114.281 275.856 122.681Z" fill="#56B19A"/>
<path d="M301.679 163.135C303.314 163.442 304.653 163.901 306.004 164.694C301.258 169.698 296.502 174.369 291.347 178.807C290.09 178.004 289.231 177.434 288.372 176.863C292.709 172.338 297.047 167.812 301.679 163.135Z" fill="#489999"/>
<path d="M179.201 162.898C183.073 166.682 186.945 170.465 190.89 174.931C190.615 176.835 190.266 178.056 189.917 179.277C185.304 174.835 180.691 170.393 176.086 165.326C177.129 164.1 178.165 163.499 179.201 162.898Z" fill="#489999"/>
<path d="M312.131 269.323C312.661 268.057 313.341 267.092 314.063 265.757C317.166 267.597 320.229 269.806 323.745 272.234C324.463 272.351 324.727 272.249 324.991 272.147C326.396 272.116 327.802 272.086 329.769 272.33C330.876 272.486 331.42 272.369 331.964 272.252C332.414 272.193 332.863 272.135 333.647 272.149C333.991 273.269 334.001 274.315 334.016 275.757C332.375 276.213 330.702 276.103 329.089 276.365C322.101 277.501 316.497 275.328 312.131 269.323Z" fill="#468197"/>
<path d="M214.354 17.3938C215.126 18.5556 215.548 19.8149 215.97 21.4694C213.151 24.4293 210.5 27.224 207.434 29.4484C206.172 30.3644 204.019 30.0539 202.272 30.3013C202.647 28.7261 202.503 26.5771 203.493 25.6807C206.777 22.7079 210.469 20.1861 214.354 17.3938Z" fill="#50A797"/>
<path d="M260.892 268.579C260.227 269.6 259.423 270.303 258.246 271.021C252.604 266.627 249.83 257.217 252.044 250.817C252.309 250.051 253.34 249.036 253.988 249.056C254.677 249.078 255.792 250.116 255.913 250.844C256.209 252.623 256.231 254.503 256.02 256.301C255.449 261.181 256.354 265.39 260.892 268.579Z" fill="#468197"/>
<path d="M360.035 360.215C358.833 359.384 357.933 358.481 357.192 356.883C361.354 353.036 365.356 349.884 369.359 346.731C370.267 347.797 371.176 348.863 372.394 349.915C368.581 353.316 364.459 356.73 360.035 360.215Z" fill="#558C9E"/>
<path d="M81.376 259.857C80.9789 258.75 80.9854 257.7 81.2906 256.023C91.9519 254.01 90.0394 255.108 92.4851 245.359C92.5219 245.213 92.6819 245.097 93.0378 245.098C93.5174 246.059 93.7436 246.889 93.9815 247.762C94.7457 247.542 95.4831 247.329 96.2205 247.117C95.1435 256.909 94.5979 257.393 81.376 259.857Z" fill="#92B873"/>
<path d="M42.049 236.994C41.4231 235.844 40.5698 234.76 40.2137 233.532C39.1169 229.749 37.2056 227.451 32.7822 227.974C31.708 228.101 30.4671 226.816 29.3028 226.18C30.4193 225.458 31.471 224.251 32.6628 224.091C40.6465 223.024 41.5502 223.708 44.0016 232.58C43.276 234.529 42.6625 235.761 42.049 236.994Z" fill="#92B873"/>
<path d="M96.325 247.158C95.4831 247.329 94.7457 247.542 93.9815 247.762C93.7436 246.889 93.5174 246.059 93.0632 244.762C92.9836 243.873 93.1321 243.451 93.5578 242.973C93.8191 242.255 93.8033 241.594 93.7458 240.632C93.478 239.783 93.2518 239.233 92.9273 238.358C91.2028 238.071 89.5767 238.109 87.5866 238.2C86.4893 238.225 85.7559 238.196 85.0225 238.168C83.6862 237.033 82.3499 235.897 81.0079 234.387C85.9939 234.009 90.9857 234.005 96.5211 234.407C97.1336 236.465 97.3148 238.121 97.2449 239.767C97.1399 242.241 96.859 244.707 96.6529 247.176C96.6529 247.176 96.4294 247.2 96.325 247.158Z" fill="#86B163"/>
<path d="M182.471 213.14C182.424 211.904 182.837 210.759 183.132 209.336C188.118 209.016 193.227 208.842 198.323 209.036C199.411 209.078 200.449 210.456 201.51 211.219C200.425 211.923 199.36 213.193 198.251 213.234C193.151 213.421 188.039 213.264 182.471 213.14Z" fill="#428A97"/>
<path d="M400.222 206.926C395.783 207.297 391.344 207.668 386.108 208.069C385.095 208.144 384.878 208.188 384.661 208.232C384.112 206.075 383.564 203.918 383.342 201.068C384.837 198.196 382.357 194.332 386.75 194.045C386.876 195.942 387.026 197.45 386.908 199.12C386.926 200.217 387.213 201.152 387.643 202.452C389.938 203.861 392.018 205.118 394.265 205.885C396.149 206.529 398.229 206.601 400.222 206.926Z" fill="#D58F53"/>
<path d="M179.075 162.586C178.165 163.499 177.129 164.1 175.926 165.042C172.614 162.45 169.47 159.517 166.216 156.272C169.216 156.452 168.152 154.388 167.983 152.557C171.633 155.582 175.291 158.928 179.075 162.586Z" fill="#5DA9A2"/>
<path d="M239.558 94.0253C239.999 94.0975 239.999 94.5462 239.554 94.774C236.503 95.7714 232.125 92.7972 231.829 98.4476C228.422 97.6524 225.016 96.8572 221.292 95.829C220.34 94.0032 219.706 92.4106 219.03 90.4885C225.698 91.4237 232.407 92.6884 239.558 94.0253Z" fill="#53A99C"/>
<path d="M296.534 208.984C296.995 210.137 296.995 211.2 296.989 212.661C292.363 213.131 287.738 213.344 283.128 213.169C282.061 213.129 281.045 211.765 280.005 211.01C281.065 210.278 282.096 208.972 283.191 208.916C287.474 208.694 291.777 208.866 296.534 208.984Z" fill="#428A97"/>
<path d="M386.774 193.656C382.357 194.332 384.837 198.196 383.399 200.668C383.085 194.576 383.04 188.191 383.073 181.391C384.175 180.984 385.198 180.992 386.655 181.453C386.984 185.822 386.879 189.739 386.774 193.656Z" fill="#DDA474"/>
<path d="M288.099 176.994C289.231 177.434 290.09 178.004 291.047 178.978C289.079 181.845 287.142 184.443 284.851 186.677C284.288 187.226 282.57 186.591 281.383 186.501C281.501 185.324 281.189 183.786 281.818 183.038C283.616 180.896 285.797 179.074 288.099 176.994Z" fill="#5DA9A2"/>
<path d="M190.057 179.571C190.266 178.056 190.615 176.835 191.016 175.235C193.786 177.458 196.637 179.942 199.14 182.738C199.879 183.565 199.634 185.273 199.841 186.577C198.534 186.367 196.87 186.589 195.993 185.861C193.866 184.098 192.105 181.892 190.057 179.571Z" fill="#52A49D"/>
<path d="M393.032 156.04C392.88 156.904 392.727 157.769 392.329 158.858C391.899 159.066 391.714 159.048 391.253 159.01C391.088 157.018 391.15 155.042 391.324 153.076C391.624 149.669 393.027 147.135 396.571 146.016C399.912 144.962 402.763 145.126 405.063 148.566C404.233 149.143 403.245 149.406 401.668 149.913C400.067 150.114 399.054 150.07 397.701 149.877C390.555 148.155 393.891 153.536 393.032 156.04Z" fill="#DC9D6B"/>
<path d="M238.932 159.369C239.717 157.296 240.429 155.595 241.642 152.696C241.953 156.455 242.158 158.923 242.63 161.673C242.929 164.718 243.158 167.497 242.935 170.239C242.718 172.909 241.591 174.38 239.299 171.212C239.34 170.114 239.162 169.555 238.985 168.997C238.928 167.61 238.871 166.224 239.113 164.282C239.263 163.147 239.114 162.569 238.965 161.991C238.93 161.24 238.894 160.49 238.932 159.369Z" fill="#459B91"/>
<path d="M42.0333 237.28C42.6625 235.761 43.276 234.529 44.005 232.949C47.7775 233.031 51.4345 233.459 55.5363 233.948C55.9845 235.09 55.9881 236.172 55.5646 237.715C53.1067 238.157 51.0758 238.137 48.8898 237.871C48.1362 238.049 47.5379 238.473 46.9211 238.941C46.9026 238.987 46.8172 238.939 46.8172 238.939C45.7073 238.972 44.5973 239.005 43.0676 239.073C42.4378 238.593 42.2277 238.08 42.0333 237.28Z" fill="#71B857"/>
<path d="M232.169 98.6822C232.125 92.7972 236.503 95.7714 239.554 94.9984C241.979 95.5892 243.959 96.1834 246.083 97.0994C241.655 97.9198 237.082 98.4184 232.169 98.6822Z" fill="#459B91"/>
<path d="M205.654 166.557C206.948 166.265 208.364 166.297 209.979 166.028C210.927 166.015 212.072 166.096 212.352 166.631C213.306 168.457 213.957 170.442 214.723 172.367C212.842 171.753 210.8 171.413 209.129 170.438C207.778 169.65 206.876 168.095 205.654 166.557Z" fill="#5DA9A2"/>
<path d="M210.446 256.95C208.954 256.699 207.778 256.341 206.227 255.961C207.281 254.118 208.523 252.088 210.219 250.563C211.069 249.799 212.747 249.957 214.05 249.698C213.993 251.006 214.311 252.498 213.782 253.575C213.156 254.852 211.801 255.77 210.446 256.95Z" fill="#558C9E"/>
<path d="M268.168 213.011C269.202 213.005 270.237 213 271.66 212.99C272.119 215.748 272.19 218.511 271.752 221.637C270.205 221.997 269.168 221.994 268.044 221.549C268.027 218.408 268.098 215.709 268.168 213.011Z" fill="#428A97"/>
<path d="M418.964 149.857C419.231 149.093 419.499 148.329 420.088 147.194C420.671 146.664 420.861 146.444 420.979 146.161C422.345 147.079 423.711 147.997 425.09 149.538C425.452 150.771 425.799 151.382 426.147 151.993C426.302 153.155 426.457 154.318 426.372 155.751C425.241 155.976 424.351 155.93 423.087 155.465C421.463 153.316 420.213 151.587 418.964 149.857Z" fill="#DC9D6B"/>
<path d="M430.788 201.017C431.521 200.459 432.253 199.901 433.39 199.036C433.739 200.741 434.011 202.07 434.513 203.644C434.075 205.227 433.405 206.566 432.133 207.938C431.091 208.142 430.654 208.311 430.216 208.481C429.755 208.705 429.294 208.93 428.439 209.137C428.238 207.897 428.432 206.674 428.765 205.19C428.904 204.929 428.904 204.899 429.267 204.897C429.999 204.133 430.368 203.371 430.705 202.343C430.711 201.724 430.749 201.371 430.788 201.017Z" fill="#D58F53"/>
<path d="M188.511 42.89C188.675 44.5101 188.518 46.2207 188.696 48.2708C189.059 48.8087 189.087 49.0072 189.115 49.2057C187.668 51.3066 185.766 53.0866 183.603 50.7003C182.992 50.0269 184.371 47.2283 185.254 45.6355C185.859 44.5437 187.185 43.8513 188.511 42.89Z" fill="#53A99C"/>
<path d="M435.429 261.013C435.456 258.066 434.351 256.817 431.076 256.76C429.115 256.726 427.178 255.286 425.314 254.095C427.915 254.173 430.453 254.544 432.943 255.126C434.571 255.506 436.129 256.191 437.718 256.739C437.069 258.136 436.419 259.533 435.429 261.013Z" fill="#DDA474"/>
<path d="M271.104 61.6056C266.937 62.8351 270.408 65.363 270.042 67.4174C268.995 66.7939 267.49 65.99 266.986 64.7718C266.349 63.2316 266.526 61.354 266.352 59.622C267.927 60.1602 269.502 60.6984 271.104 61.6056Z" fill="#5DA9A2"/>
<path d="M242.671 250.683C241.779 252.059 240.36 252.969 240.113 254.128C239.612 256.478 239.747 258.962 239.339 261.684C238.911 258.551 238.506 255.112 238.694 251.705C238.853 248.826 240.26 247.644 242.671 250.683Z" fill="#558C9E"/>
<path d="M281.821 70.3084C282.098 69.2248 282.662 68.0423 283.281 66.8889C284.163 65.2464 285.084 63.6254 286.001 61.6304C286.785 61.2854 287.554 61.3051 288.324 61.3249C288.217 62.5588 288.568 64.1877 287.913 64.9497C286.224 66.912 284.089 68.4906 281.821 70.3084Z" fill="#5DA9A2"/>
<path d="M96.9353 246.994C96.859 244.707 97.1399 242.241 97.2449 239.767C97.3148 238.121 97.1336 236.465 96.9805 234.44C97.8609 235.392 99.7351 236.81 99.6101 238.022C99.3025 241.002 98.0751 243.887 96.9353 246.994Z" fill="#DCE6D3"/>
<path d="M202.266 51.2552C207.986 50.109 203.08 47.4678 203.064 45.2887C204.141 45.8429 205.581 46.571 206.208 47.7364C206.772 48.7828 206.443 50.3098 206.507 51.6248C205.122 51.6056 203.736 51.5863 202.266 51.2552Z" fill="#6AA3A3"/>
<path d="M272.237 205.677C271.897 202.158 271.708 198.27 271.776 194.182C272.151 197.757 272.269 201.533 272.237 205.677Z" fill="#428A97"/>
<path d="M209.414 123.061C208.388 122.732 207.363 122.403 206.019 122.086C206.841 120.315 207.983 118.532 209.47 116.694C209.929 117.691 210.041 118.744 210.204 120.555C209.975 121.894 209.694 122.478 209.414 123.061Z" fill="#5CB1A3"/>
<path d="M268.13 221.992C269.168 221.994 270.205 221.997 271.632 222.002C272.083 223.399 272.144 224.794 272.096 226.595C270.96 227.003 269.934 227.005 268.414 226.596C267.99 224.788 268.06 223.39 268.13 221.992Z" fill="#489999"/>
<path d="M229.097 253.005C229.191 253.743 229.285 254.481 228.953 255.713C227.388 256.461 226.249 256.715 225.109 256.97C225.01 255.828 224.911 254.687 225.348 253.278C226.956 253.008 228.026 253.007 229.097 253.005Z" fill="#468197"/>
<path d="M192.283 53.4531C193.251 55.7905 194.053 58.5427 194.859 61.6294C194.458 62.2274 194.053 62.491 193.426 62.854C192.841 59.925 192.479 56.8965 192.283 53.4531Z" fill="#6AA3A3"/>
<path d="M267.535 180.036C262.2 180.283 256.405 180.438 250.305 180.313C255.692 180.003 261.383 179.974 267.535 180.036Z" fill="#6AA3A3"/>
<path d="M243.061 280.63C242.718 278.173 242.548 275.384 242.647 272.314C243.022 274.788 243.127 277.543 243.061 280.63Z" fill="#558C9E"/>
<path d="M252.426 171.008C252.772 168.395 253.083 166.012 253.395 163.629C253.977 163.687 254.559 163.746 255.14 163.804C254.581 166.531 254.021 169.257 253.138 172.021C252.58 171.833 252.439 171.559 252.426 171.008Z" fill="#459B91"/>
<path d="M53.0993 182.369C54.1214 181.755 55.0692 181.559 57.1985 181.12C55.909 183.509 54.9767 185.237 53.6911 186.984C53.2335 185.598 53.1292 184.193 53.0993 182.369Z" fill="#71B857"/>
<path d="M225.022 257.352C226.249 256.715 227.388 256.461 228.863 256.077C229.243 257.69 229.288 259.434 229.216 261.6C227.973 261.454 226.846 260.886 225.434 260.191C225.077 259.287 225.006 258.511 225.022 257.352Z" fill="#467D95"/>
<path d="M229.181 252.599C228.026 253.007 226.956 253.008 225.484 253.017C225.589 251.644 226.095 250.263 226.601 248.882C227.489 249.986 228.377 251.09 229.181 252.599Z" fill="#467D95"/>
<path d="M241.54 180C237.204 180.267 232.41 180.441 227.308 180.34C231.695 180.013 236.388 179.96 241.54 180Z" fill="#6AA3A3"/>
<path d="M212.539 144.266C214.073 145.765 215.494 147.585 216.921 149.752C215.427 148.262 213.927 146.424 212.539 144.266Z" fill="#5DA9A2"/>
<path d="M238.842 277.321C239.185 279.161 239.374 281.321 239.284 283.739C238.9 281.878 238.794 279.76 238.842 277.321Z" fill="#558C9E"/>
<path d="M250.336 19.0389C251.967 19.4247 253.859 20.0366 255.786 20.9696C254.08 20.6155 252.339 19.9403 250.336 19.0389Z" fill="#53A99C"/>
<path d="M342.018 254.054C344.247 254.417 346.476 254.781 349.151 255.228C347.244 255.382 344.892 255.453 342.274 255.05C342.012 254.402 342.015 254.228 342.018 254.054Z" fill="#5A93A6"/>
<path d="M440.094 169.697C439.647 168.401 439.392 166.833 439.226 164.838C439.639 166.082 439.963 167.753 440.094 169.697Z" fill="#DDA474"/>
<path d="M274.152 72.3023C275.713 71.9773 277.407 71.9705 279.524 71.9639C278.348 74.6742 276.404 74.4 274.152 72.3023Z" fill="#5DA9A2"/>
<path d="M87.9643 274.904C86.5511 275.097 85.1832 275.069 83.4043 275.013C82.9789 274.694 82.9408 274.407 82.8422 273.911C84.3224 273.605 85.8392 273.509 87.7781 273.612C88.1287 274.099 88.0653 274.39 87.9643 274.904Z" fill="#DCE6D3"/>
<path d="M321.973 248.436C324.564 248.22 327.476 248.293 330.684 248.642C328.085 248.854 325.189 248.789 321.973 248.436Z" fill="#5391A2"/>
<path d="M195.221 70.2973C196.132 71.495 197.025 73.0313 197.862 74.9496C196.938 73.7664 196.07 72.2011 195.221 70.2973Z" fill="#6AA3A3"/>
<path d="M197.259 38.4666C196.163 38.8303 194.919 38.8818 193.21 38.8961C194.2 38.624 195.655 38.3892 197.259 38.4666Z" fill="#6AA3A3"/>
<path d="M48.4302 259.37C48.8005 260.212 49.0896 261.461 49.1472 262.865C48.7269 261.939 48.538 260.859 48.4302 259.37Z" fill="#92B873"/>
<path d="M289.981 142.34C290.085 143.354 289.966 144.628 289.531 145.983C289.396 144.909 289.576 143.755 289.981 142.34Z" fill="#5CB1A3"/>
<path d="M215.537 273.773C215.048 275.011 214.235 276.392 213.081 277.911C213.564 276.672 214.389 275.294 215.537 273.773Z" fill="#4E819A"/>
<path d="M310.02 237.342C310.931 237.818 311.929 238.602 312.944 239.735C312.01 239.273 311.058 238.462 310.02 237.342Z" fill="#5391A2"/>
<path d="M316.958 244.37C317.884 244.803 318.912 245.541 319.974 246.624C319.025 246.205 318.043 245.44 316.958 244.37Z" fill="#5391A2"/>
<path d="M216.995 150.38C217.918 150.809 218.936 151.543 219.987 152.619C219.044 152.202 218.066 151.444 216.995 150.38Z" fill="#5DA9A2"/>
<path d="M189.487 49.0581C189.087 49.0072 189.059 48.8087 189.02 48.3098C190.218 48.1692 191.427 48.3289 192.433 48.6945C191.441 48.9037 190.65 48.9071 189.487 49.0581Z" fill="#6AA3A3"/>
<path d="M388.413 256.045C388.013 256.045 387.996 255.636 387.991 255.432C389.713 255.158 391.44 255.089 393.594 255.098C392.284 255.466 390.548 255.755 388.413 256.045Z" fill="#DC9D6B"/>
<path d="M302.01 299.754C301.65 299.001 301.485 298.053 301.519 296.762C301.881 297.466 302.043 298.513 302.01 299.754Z" fill="#6AA3A3"/>
<path d="M252.137 158.361C253.004 158.34 253.788 158.644 254.572 158.949C253.981 159.299 253.39 159.649 252.464 160.013C252.104 159.581 252.079 159.134 252.137 158.361Z" fill="#459B91"/>
<path d="M333.29 249.101C333.936 248.862 334.856 248.773 335.905 248.919C335.209 249.187 334.386 249.219 333.29 249.101Z" fill="#5391A2"/>
<path d="M274.714 63.3078C274.152 63.4332 273.202 63.5637 272.127 63.4206C272.777 63.2023 273.551 63.2575 274.714 63.3078Z" fill="#5DA9A2"/>
<path d="M438.248 177.649C438.302 176.856 438.649 175.994 439.277 175.049C439.219 175.836 438.881 176.708 438.248 177.649Z" fill="#DDA474"/>
<path d="M438.241 160.518C437.399 160.49 436.401 160.158 435.221 159.557C436.054 159.597 437.07 159.905 438.241 160.518Z" fill="#DDA474"/>
<path d="M416.666 146.026C416.161 146.69 415.31 147.309 414.121 147.926C414.628 147.276 415.473 146.629 416.666 146.026Z" fill="#DC9D6B"/>
<path d="M247.413 241.924C248.509 241.673 250.012 241.529 251.754 241.629C250.602 241.924 249.21 241.978 247.413 241.924Z" fill="#6AA3A3"/>
<path d="M259.414 241.926C260.489 241.654 261.974 241.465 263.718 241.493C262.593 241.809 261.209 241.909 259.414 241.926Z" fill="#6AA3A3"/>
<path d="M338.734 241.195C338.602 242.042 338.163 242.984 337.386 243.973C337.508 243.109 337.968 242.2 338.734 241.195Z" fill="#5A93A6"/>
<path d="M193.505 65.2385C194.039 65.8539 194.475 66.775 194.842 68.0431C194.317 67.4415 193.862 66.4928 193.505 65.2385Z" fill="#6AA3A3"/>
<path d="M211.408 133.227C211.772 133.484 212.225 134.01 212.501 134.713C212.049 134.426 211.773 133.961 211.408 133.227Z" fill="#5DA9A2"/>
<path d="M426.271 151.723C425.799 151.382 425.452 150.771 425.141 149.862C425.584 150.194 425.99 150.824 426.271 151.723Z" fill="#DDA474"/>
<path d="M205.516 126.236C206.048 126.566 206.472 127.185 206.839 128.119C206.324 127.798 205.867 127.162 205.516 126.236Z" fill="#5CB1A3"/>
<path d="M430.244 208.749C430.654 208.311 431.091 208.142 431.783 207.997C431.449 208.353 430.861 208.685 430.244 208.749Z" fill="#DC9D6B"/>
<path d="M238.832 169.164C239.162 169.555 239.34 170.114 239.301 170.823C238.95 170.426 238.815 169.879 238.832 169.164Z" fill="#5DA9A2"/>
<path d="M238.903 267.187C239.17 267.576 239.311 268.141 239.231 268.85C238.933 268.45 238.854 267.906 238.903 267.187Z" fill="#558C9E"/>
<path d="M260.605 116.797C260.468 117.409 260.033 118.144 259.241 118.906C259.358 118.262 259.833 117.591 260.605 116.797Z" fill="#50A797"/>
<path d="M212.544 283.079C212.862 283.523 213.048 284.171 212.954 284.976C212.587 284.517 212.5 283.9 212.544 283.079Z" fill="#4E819A"/>
<path d="M211.701 289.069C211.423 289.604 210.844 290.241 209.896 290.862C210.152 290.287 210.776 289.729 211.701 289.069Z" fill="#4E819A"/>
<path d="M238.819 162.165C239.114 162.569 239.263 163.147 239.181 163.87C238.857 163.456 238.765 162.897 238.819 162.165Z" fill="#5DA9A2"/>
<path d="M321.088 242.567C320.482 242.408 319.792 241.95 319.099 241.138C319.731 241.278 320.368 241.773 321.088 242.567Z" fill="#5391A2"/>
<path d="M338.026 251.315C338.598 251.536 339.217 252.059 339.784 252.927C339.179 252.719 338.626 252.169 338.026 251.315Z" fill="#5391A2"/>
<path d="M375.403 347.16C375.455 346.564 375.785 345.843 376.431 345.052C376.391 345.666 376.035 346.35 375.403 347.16Z" fill="#558C9E"/>
<path d="M258.622 119.112C258.714 119.863 258.496 120.823 257.951 121.996C257.854 121.246 258.083 120.283 258.622 119.112Z" fill="#50A797"/>
<path d="M254.221 335.521C253.53 335.726 252.549 335.696 251.301 335.414C251.999 335.203 252.965 335.245 254.221 335.521Z" fill="#5A93A6"/>
<path d="M327.613 245.104C327.124 245.325 326.27 245.465 325.222 245.393C325.767 245.128 326.508 245.076 327.613 245.104Z" fill="#5391A2"/>
<path d="M385.609 159.052C385.133 159.294 384.295 159.466 383.26 159.432C383.791 159.145 384.519 159.063 385.609 159.052Z" fill="#DC9D6B"/>
<path d="M301.043 228.3C301.57 228.458 302.246 228.865 302.97 229.593C302.409 229.46 301.8 229.005 301.043 228.3Z" fill="#5391A2"/>
<path d="M271.632 181.779C271.17 181.76 270.704 181.444 270.207 180.829C270.66 180.848 271.145 181.165 271.632 181.779Z" fill="#6AA3A3"/>
<path d="M196.531 294.278C195.992 294.466 195.457 294.54 194.922 294.614C195.215 294.409 195.508 294.204 196.115 293.981C196.429 293.962 196.535 294.164 196.531 294.278Z" fill="#487790"/>
<path d="M280.248 71.8803C280.237 71.4223 280.508 70.8965 281.098 70.3868C281.121 70.8728 280.825 71.3426 280.248 71.8803Z" fill="#5DA9A2"/>
<path d="M296.328 307.074C296.476 306.697 296.933 306.348 297.694 306.006C297.544 306.376 297.091 306.738 296.328 307.074Z" fill="#6AA3A3"/>
<path d="M293.307 307.834C293.569 307.506 294.133 307.29 295.005 307.161C294.745 307.48 294.177 307.713 293.307 307.834Z" fill="#6AA3A3"/>
<path d="M227.343 54.8642C227.653 54.7053 228.203 54.7498 228.775 55.0602C228.392 55.2399 227.988 55.1537 227.343 54.8642Z" fill="#46A89B"/>
<path d="M331.65 272.145C331.42 272.369 330.876 272.486 330.183 272.414C330.469 272.162 330.902 272.101 331.65 272.145Z" fill="#558C9E"/>
<path d="M258.647 336.16C258.401 336.366 257.846 336.448 257.156 336.327C257.46 336.094 257.899 336.065 258.647 336.16Z" fill="#5A93A6"/>
<path d="M197.489 125.842C196.888 125.863 196.389 125.66 195.89 125.458C196.252 125.333 196.615 125.208 197.294 125.106C197.611 125.128 197.59 125.618 197.489 125.842Z" fill="#50A797"/>
<path d="M227.633 415.424C227.804 415.247 228.17 415.283 228.742 415.508C228.575 415.677 228.202 415.658 227.633 415.424Z" fill="#46718F"/>
<path d="M426.234 159.035C425.981 158.849 425.98 158.653 426.033 158.169C426.413 158.005 426.658 158.222 426.907 158.765C426.823 159.008 426.655 159.017 426.234 159.035Z" fill="#DDA474"/>
<path d="M201.162 42.6063C200.923 42.6651 200.6 42.4465 200.231 41.9255C200.483 41.8584 200.781 42.0935 201.162 42.6063Z" fill="#6AA3A3"/>
<path d="M322.135 243.648C321.911 243.733 321.591 243.553 321.183 243.102C321.41 243.016 321.724 243.2 322.135 243.648Z" fill="#5391A2"/>
<path d="M331.747 245.117C331.992 245.179 331.655 245.527 331.655 245.527C331.655 245.527 331.202 245.46 331.107 245.322C331.175 245.141 331.339 245.098 331.747 245.117Z" fill="#5391A2"/>
<path d="M242.242 241.845C242.264 241.67 242.542 241.575 242.916 241.624C242.841 241.821 242.67 241.873 242.242 241.845Z" fill="#6AA3A3"/>
<path d="M273.125 71.221C273.403 71.0574 273.659 71.2426 273.928 71.7526C273.733 71.8094 273.454 71.6403 273.125 71.221Z" fill="#5DA9A2"/>
<path d="M203.997 158.714C203.742 158.766 203.478 158.534 203.158 158.04C203.398 157.995 203.693 158.213 203.997 158.714Z" fill="#5DA9A2"/>
<path d="M224.754 180.05C224.734 180.219 224.46 180.325 224.091 180.279C224.164 180.08 224.332 180.033 224.754 180.05Z" fill="#6AA3A3"/>
<path d="M303.368 225.942C303.023 225.733 303.044 225.492 303.11 224.892C303.493 224.764 303.831 224.997 304.312 225.507C304.215 225.826 303.974 225.868 303.368 225.942Z" fill="#5391A2"/>
<path d="M245.752 180.005C245.733 180.173 245.459 180.287 245.089 180.246C245.161 180.044 245.328 179.997 245.752 180.005Z" fill="#6AA3A3"/>
<path d="M199.298 40.5183C199.058 40.6002 198.692 40.4086 198.26 39.8985C198.521 39.8016 198.847 40.0232 199.298 40.5183Z" fill="#6AA3A3"/>
<path d="M314.342 235.536C314.092 235.602 313.705 235.367 313.245 234.784C313.517 234.702 313.86 234.969 314.342 235.536Z" fill="#5391A2"/>
<path d="M234.817 131.381C235.004 131.275 235.355 131.397 235.854 131.765C235.661 131.877 235.321 131.743 234.817 131.381Z" fill="#5DA9A2"/>
<path d="M283.644 124.14C283.844 124.188 283.983 124.499 283.899 124.871C283.645 124.756 283.615 124.579 283.644 124.14Z" fill="#50A797"/>
<path d="M190.632 40.8271C190.722 41.0573 190.543 41.3856 190.088 41.8023C189.995 41.5688 190.178 41.2469 190.632 40.8271Z" fill="#53A99C"/>
<path d="M304.113 231.244C304.39 231.089 304.642 231.279 304.903 231.791C304.712 231.842 304.436 231.667 304.113 231.244Z" fill="#5391A2"/>
<path d="M156.263 409.969C156.254 409.784 156.502 409.632 156.858 409.613C156.818 409.832 156.669 409.917 156.263 409.969Z" fill="#487790"/>
<path d="M189.614 41.888C189.701 42.1206 189.524 42.431 189.077 42.81C188.988 42.5743 189.169 42.27 189.614 41.888Z" fill="#53A99C"/>
<path d="M317.248 238.582C317.007 238.652 316.648 238.436 316.215 237.901C316.471 237.82 316.8 238.058 317.248 238.582Z" fill="#5391A2"/>
<path d="M215.244 241.888C215.263 241.708 215.538 241.606 215.912 241.648C215.841 241.849 215.671 241.907 215.244 241.888Z" fill="#6AA3A3"/>
<path d="M220.244 241.804C220.262 241.629 220.537 241.53 220.911 241.571C220.84 241.767 220.67 241.824 220.244 241.804Z" fill="#6AA3A3"/>
<path d="M166.26 407.933C166.272 407.753 166.534 407.632 166.89 407.655C166.827 407.863 166.669 407.927 166.26 407.933Z" fill="#558C9E"/>
<path d="M264.343 150.056C264.262 149.845 264.437 149.543 264.859 149.139C264.938 149.346 264.768 149.655 264.343 150.056Z" fill="#5DA9A2"/>
<path d="M196.617 59.4813C196.255 59.3149 196.201 58.9782 196.135 58.1292C196.391 58.1816 196.658 58.7462 196.617 59.4813Z" fill="#46A193"/>
<path d="M287.903 306.383C288.094 306.256 288.413 306.362 288.868 306.688C288.679 306.812 288.355 306.714 287.903 306.383Z" fill="#6AA3A3"/>
<path d="M244.284 306.857C244.265 306.628 244.512 306.399 245.017 306.145C245.033 306.366 244.791 306.612 244.284 306.857Z" fill="#558C9E"/>
<path d="M163.068 146.685C162.875 146.792 162.571 146.653 162.13 146.301C162.314 146.205 162.636 146.322 163.068 146.685Z" fill="#5DA9A2"/>
<path d="M249.787 297.733C249.38 297.811 249.278 297.567 249.531 297.141C249.651 297.045 249.858 297.495 249.787 297.733Z" fill="#558C9E"/>
<path d="M207.298 260.031C207.227 259.828 207.412 259.53 207.845 259.13C207.913 259.331 207.733 259.634 207.298 260.031Z" fill="#558C9E"/>
<path d="M420.733 146.071C420.861 146.444 420.671 146.664 420.205 146.91C420.001 146.998 419.976 146.528 419.972 146.292C420.141 146.032 420.314 146.007 420.733 146.071Z" fill="#DDA474"/>
<path d="M436.291 178.996C436.254 178.785 436.484 178.5 436.992 178.155C437.032 178.37 436.795 178.646 436.291 178.996Z" fill="#DDA474"/>
<path d="M339.957 182.314C340.162 182.232 340.457 182.406 340.869 182.814C340.673 182.889 340.361 182.729 339.957 182.314Z" fill="#52A49D"/>
<path d="M434.341 262.035C434.241 261.803 434.401 261.503 434.813 261.121C434.91 261.349 434.756 261.658 434.341 262.035Z" fill="#DD9C62"/>
<path d="M291.123 283.253C291.317 283.172 291.509 283.324 291.656 283.512C291.686 283.551 291.544 283.723 291.308 283.913C291.135 283.993 291.105 283.5 291.123 283.253Z" fill="#558C9E"/>
<path d="M242.955 283.747C242.715 283.825 242.546 283.672 242.428 283.485C242.397 283.436 242.523 283.286 242.73 283.095C242.937 283.173 242.991 283.338 242.955 283.747Z" fill="#558C9E"/>
<path d="M433.357 263.055C433.263 262.826 433.426 262.522 433.846 262.148C433.941 262.378 433.777 262.68 433.357 263.055Z" fill="#DD9C62"/>
<path d="M137.301 283.659C137.241 283.354 137.48 283.186 138.008 283.102C138.098 283.406 137.866 283.61 137.301 283.659Z" fill="#4E819A"/>
<path d="M384.807 208.467C384.878 208.188 385.095 208.144 385.644 208.083C385.977 208.237 385.977 208.409 385.968 208.838C385.622 208.964 385.287 208.833 384.807 208.467Z" fill="#DDA474"/>
<path d="M292.138 272.708C291.898 272.774 291.575 272.551 291.178 272.037C291.421 271.97 291.739 272.195 292.138 272.708Z" fill="#558C9E"/>
<path d="M324.745 272.079C324.727 272.249 324.463 272.351 324.106 272.308C324.175 272.113 324.337 272.063 324.745 272.079Z" fill="#558C9E"/>
<path d="M425.012 222.727C424.785 222.758 424.504 222.504 424.167 221.962C424.394 221.93 424.676 222.186 425.012 222.727Z" fill="#DDA474"/>
<path d="M270.32 338.54C270.147 338.707 269.782 338.663 269.225 338.416C269.397 338.251 269.762 338.29 270.32 338.54Z" fill="#5A93A6"/>
<path d="M215.752 180.173C215.73 180.343 215.459 180.429 215.092 180.377C215.165 180.189 215.334 180.139 215.752 180.173Z" fill="#6AA3A3"/>
<path d="M141.305 254.042C141.246 253.767 141.476 253.497 141.973 253.182C142.025 253.44 141.81 253.743 141.305 254.042Z" fill="#6AA3A3"/>
<path d="M46.3214 252.286C46.6329 252.221 46.8077 252.468 46.8875 253.022C46.5737 253.11 46.3711 252.867 46.3214 252.286Z" fill="#92B873"/>
<path d="M339.808 253.478C340.055 253.37 340.381 253.526 340.774 253.959C340.523 254.071 340.205 253.907 339.808 253.478Z" fill="#5391A2"/>
<path d="M47.0332 254.259C47.2057 254.248 47.3622 254.494 47.3916 254.856C47.1821 254.82 47.0997 254.669 47.0332 254.259Z" fill="#92B873"/>
<path d="M203.012 44.6937C202.784 44.7651 202.494 44.5716 202.131 44.1188C202.355 44.0492 202.652 44.2391 203.012 44.6937Z" fill="#6AA3A3"/>
<path d="M341.708 254.069C342.015 254.228 342.012 254.402 342.008 254.837C341.679 254.971 341.351 254.843 340.908 254.473C340.995 254.181 341.197 254.133 341.708 254.069Z" fill="#5391A2"/>
<path d="M232.209 49.6422C231.997 49.6937 231.64 49.4737 231.184 48.9443C231.412 48.8803 231.738 49.1255 232.209 49.6422Z" fill="#46A89B"/>
<path d="M354.342 314.513C354.165 314.692 353.793 314.655 353.223 314.411C353.399 314.236 353.772 314.267 354.342 314.513Z" fill="#5A93A6"/>
<path d="M338.965 181.291C339.171 181.229 339.462 181.428 339.85 181.88C339.648 181.939 339.349 181.746 338.965 181.291Z" fill="#52A49D"/>
<path d="M344.764 313.924C344.755 314.097 344.489 314.239 344.122 314.223C344.182 314.007 344.345 313.95 344.764 313.924Z" fill="#468197"/>
<path d="M405.822 180.031C405.888 187.093 406.043 194.155 405.973 201.215C405.948 203.776 406.634 205.356 409.77 205.588C408.027 210.144 404.584 207.548 401.182 207.086C400.904 204.362 400.981 201.801 401.126 199.245C401.341 195.454 401.604 191.665 401.893 187.451C402.939 184.933 403.94 182.841 405.178 180.391C405.416 180.034 405.822 180.031 405.822 180.031Z" fill="#D58F53"/>
<path d="M433.887 163.866C433.559 164.071 433.112 164.041 432.349 163.896C432.611 163.73 433.189 163.681 433.887 163.866Z" fill="#DDA474"/>
<path d="M405.967 179.813C405.822 180.031 405.416 180.034 405.213 180.032C405.249 179.758 405.487 179.487 405.997 179.154C406.216 179.26 406.164 179.427 405.967 179.813Z" fill="#DC9D6B"/>
<path d="M268.294 235.965C267.97 235.55 267.939 235.1 268.009 234.324C268.596 234.332 269.083 234.667 269.57 235.001C269.243 235.311 268.916 235.621 268.294 235.965Z" fill="#489999"/>
<path d="M369.562 346.428C365.356 349.884 361.354 353.036 357.183 356.455C347.324 364.378 337.634 372.034 327.782 379.952C317.496 389.236 304.884 393.901 292.935 400.259C289.007 402.146 285.033 403.411 281.441 405.372C268.39 412.497 254.768 416.024 239.452 412.918C223.838 410.299 208.716 407.331 193.485 405.113C184.345 403.782 175.034 403.623 165.083 402.981C164.022 403.233 163.677 403.442 163.332 403.652L162.861 403.557C162.861 403.557 162.399 403.691 161.858 403.784C160.889 404.015 160.459 404.153 160.03 404.291C159.207 404.478 158.384 404.665 156.965 404.956C156.046 405.294 155.722 405.527 155.398 405.76C153.432 406.386 151.466 407.013 149.343 407.689C147.955 406.481 146.411 405.139 144.541 403.502C138.444 395.142 132.675 387.077 126.829 378.706C125.4 376.854 124.05 375.309 122.588 373.445C121.645 372.087 120.814 371.047 119.894 369.697C118.941 368.443 118.076 367.501 117.211 366.558C115.21 363.801 113.278 360.99 111.191 358.299C107.8 353.925 108.135 351.623 112.848 348.111C114.813 346.647 116.774 345.179 118.896 343.416C124.492 339.089 129.611 334.51 135.427 331.131C152.468 321.228 170.809 321.325 189.385 325.507C195.012 326.774 200.455 328.862 206.374 330.658C216.964 336.277 228.368 336.351 239.431 338.024C249.709 339.578 259.952 341.355 270.699 343.133C271.187 343.232 271.362 343.145 271.521 343.404C272.054 343.799 272.427 343.935 272.987 344.34C273.745 344.93 274.317 345.251 275.008 345.815C275.702 346.485 276.276 346.911 276.907 347.529C276.963 347.721 277.28 347.965 277.317 348.262C277.925 349.365 278.495 350.171 279.084 351.343C279.41 353.142 279.715 354.575 279.888 356.181C279.824 356.907 279.892 357.459 279.892 358.381C278.174 361.672 276.526 364.594 274.502 367.654C270.756 368.481 267.359 369.876 264.022 369.745C242.724 368.904 221.442 367.663 200.145 366.774C198.285 366.696 196.358 368.202 194.463 368.972C196.339 369.97 198.208 370.984 200.101 371.948C200.369 372.084 200.759 371.971 201.092 371.986C221.886 372.897 242.674 374.056 263.477 374.525C267.951 374.626 272.481 372.235 277.343 370.881C282.51 369.045 287.408 367.53 292.103 365.536C296.563 363.64 300.811 361.243 305.375 359.012C305.905 358.813 306.072 358.571 306.442 358.22C307.606 357.51 308.426 356.813 309.245 356.116C318.363 350.212 327.481 344.309 337.019 338.078C337.747 337.595 337.933 337.346 337.995 337.007C339.242 336.214 340.489 335.422 342.208 334.286C343.879 333.005 345.077 332.067 346.275 331.129C347.737 330.272 349.199 329.416 351.157 328.239C352.302 327.371 352.951 326.823 353.599 326.275C356.145 325.797 358.691 325.319 361.951 324.894C363.103 324.917 363.539 324.887 363.976 324.857C365.689 325.548 367.401 326.238 369.547 327.273C370.297 327.801 370.614 327.985 370.931 328.168C375.454 335.304 375.15 339.986 369.562 346.428Z" fill="#FDFDFD"/>
<path d="M319.207 334.396C324.494 330.707 329.61 326.73 335.128 323.426C338.88 321.18 343.196 319.875 347.633 318.053C349.96 318.64 351.913 319.322 355.066 320.423C350.422 323.358 346.8 325.646 342.687 328.293C341.78 329.05 341.365 329.448 340.95 329.846C339.108 331.089 337.266 332.331 334.964 333.859C334.318 334.42 334.132 334.695 333.947 334.971C333.947 334.971 333.998 334.999 333.72 335.041C333.21 335.354 332.978 335.626 332.745 335.898C324.578 341.649 316.411 347.399 307.773 353.475C306.838 354.112 306.373 354.424 305.616 354.8C304.858 355.162 304.393 355.461 303.561 355.834C297.056 358.349 290.919 360.79 284.782 363.231C284.425 362.645 284.069 362.059 283.712 361.473C289.494 357.031 295.275 352.589 301.337 348.076C301.845 347.709 302.074 347.414 302.596 347.018C303.224 346.678 303.56 346.438 304.165 346.315C305.248 345.604 306.06 344.776 307.176 343.801C309.59 341.901 311.699 340.15 314.095 338.327C315.99 336.97 317.599 335.683 319.207 334.396Z" fill="#F3F6F7"/>
<path d="M305.909 354.736C306.373 354.424 306.838 354.112 307.604 353.761C308.151 354.388 308.397 355.053 308.944 355.917C308.426 356.813 307.606 357.51 306.335 357.932C305.892 356.684 305.901 355.71 305.909 354.736Z" fill="#407A95"/>
<path d="M345.905 331.113C345.077 332.067 343.879 333.005 342.36 334.006C343.204 333.078 344.369 332.088 345.905 331.113Z" fill="#5391A2"/>
<path d="M353.224 326.22C352.951 326.823 352.302 327.371 351.335 327.976C351.628 327.41 352.238 326.787 353.224 326.22Z" fill="#5391A2"/>
<path d="M341.136 330.109C341.365 329.448 341.78 329.05 342.476 328.556C342.28 329.098 341.801 329.735 341.136 330.109Z" fill="#5391A2"/>
<path d="M363.838 324.658C363.539 324.887 363.103 324.917 362.356 324.832C362.597 324.631 363.148 324.545 363.838 324.658Z" fill="#5391A2"/>
<path d="M337.777 337.076C337.933 337.346 337.747 337.595 337.203 337.785C337.084 337.524 337.282 337.299 337.777 337.076Z" fill="#5391A2"/>
<path d="M333.019 335.843C332.978 335.626 333.21 335.354 333.708 335.014C333.746 335.226 333.519 335.506 333.019 335.843Z" fill="#5391A2"/>
<path d="M334.177 334.897C334.132 334.695 334.318 334.42 334.762 334.12C334.903 334.411 334.699 334.654 334.177 334.897Z" fill="#5391A2"/>
<path d="M370.833 327.903C370.614 327.985 370.297 327.801 369.882 327.353C370.101 327.272 370.418 327.455 370.833 327.903Z" fill="#5391A2"/>
<path d="M57.1114 259.149C57.4806 258.706 57.9871 258.492 58.7677 258.375C58.4442 258.774 57.8464 259.075 57.1114 259.149Z" fill="#92B873"/>
<path d="M87.5491 415.657C80.869 406.921 74.5235 398.269 68.0034 389.315C65.0471 384.965 62.2656 380.918 59.185 376.436C66.1453 370.879 72.8492 365.528 79.761 359.888C83.4177 357.076 86.933 354.636 90.3011 352.008C96.583 347.105 96.5474 347.06 101.692 353.85C101.985 354.01 101.999 354.001 102.044 354.321C102.647 355.263 103.204 355.887 103.762 356.51C107.236 361.056 110.709 365.602 114.521 370.64C115.518 371.853 116.177 372.573 116.902 373.573C117.715 374.705 118.462 375.557 119.311 376.731C120.27 378.044 121.128 379.036 122.102 380.348C123.474 382.357 124.678 384.087 125.995 385.727C131.426 392.491 136.892 399.227 142.344 405.973C145.546 410.902 148.748 415.831 152.294 421.291C147.612 424.992 142.959 428.671 137.864 432.702C137.181 433.342 136.939 433.628 136.698 433.915C136.213 434.123 135.729 434.331 135.127 434.785C130.399 438.502 125.758 441.932 121.186 445.452C114.899 450.293 114.857 450.371 110.173 444.19C104.575 436.805 99.1575 429.283 93.5437 421.91C91.8603 419.699 89.7814 417.79 87.5491 415.657Z" fill="#FCFCFD"/>
<path d="M88.4669 419.449C88.523 419.416 88.4108 419.483 88.4669 419.449Z" fill="#356483"/>
<path d="M160.149 404.462C160.459 404.153 160.889 404.015 161.658 403.915C161.814 404.227 161.63 404.501 161.224 404.893C160.725 404.951 160.48 404.825 160.149 404.462Z" fill="#487790"/>
<path d="M163.642 403.702C163.677 403.442 164.022 403.233 164.676 403.074C164.641 403.333 164.296 403.543 163.642 403.702Z" fill="#487790"/>
<path d="M141.463 250.449C141.518 250.418 141.407 250.48 141.463 250.449Z" fill="#6AA3A3"/>
<path d="M136.104 252.327C136.151 252.117 136.311 252.045 136.734 251.999C136.737 252.171 136.477 252.318 136.104 252.327Z" fill="#6AA3A3"/>
<path d="M313.808 338.398C311.699 340.15 309.59 341.901 306.855 343.807C305.451 344.708 304.673 345.453 303.895 346.199C303.56 346.438 303.224 346.678 302.308 347.076C301.505 347.539 301.281 347.843 301.057 348.147C295.275 352.589 289.494 357.031 283.712 361.473C284.069 362.059 284.425 362.645 284.782 363.231C290.919 360.79 297.056 358.349 303.586 356.21C304.37 357.363 304.761 358.214 305.152 359.066C300.811 361.243 296.563 363.64 292.103 365.536C287.408 367.53 282.51 369.045 277 370.882C275.432 370.873 274.566 370.753 273.622 370.622C274.146 369.328 274.512 368.422 274.878 367.517C276.526 364.594 278.174 361.672 280.121 358.241C280.287 357.157 280.154 356.582 280.021 356.008C279.715 354.575 279.41 353.142 279.328 351.132C278.795 349.692 278.038 348.829 277.28 347.965C277.28 347.965 276.963 347.721 276.936 347.177C276.607 345.757 276.304 344.88 276.28 343.88C277.097 343.473 277.635 343.189 278.468 343.085C279.501 343.808 280.24 344.351 281.11 345.11C281.81 344.85 282.38 344.374 283.057 343.681C283.383 343.207 283.66 343.053 284.044 343.14C284.182 343.323 284.271 343.369 284.359 343.414C284.24 343.274 284.122 343.135 284.122 342.782C284.638 342.293 285.034 342.019 285.818 341.787C286.79 341.145 287.373 340.459 288.13 339.54C288.758 338.943 289.212 338.578 289.666 338.214C290.103 339.28 290.539 340.346 290.959 342.04C290.748 342.915 290.494 343.049 289.919 343.138C289.444 343.485 289.229 343.764 288.847 344.344C287.483 345.715 286.171 346.682 285.117 347.876C283.09 350.171 282.817 352.359 286.158 354.208C286.885 353.973 287.446 353.509 288.19 352.778C289.781 351.641 291.191 350.77 292.906 349.843C293.45 349.465 293.689 349.145 294.11 348.561C295.866 347.2 297.44 346.102 299.372 345.008C300.474 344.312 301.217 343.612 302.122 342.625C304.742 340.498 307.2 338.658 309.985 336.878C310.533 336.951 310.754 336.965 311.333 337.144C312.396 337.673 313.102 338.036 313.808 338.398Z" fill="#407A95"/>
<path d="M290.18 343.069C290.494 343.049 290.748 342.915 291.034 342.466C298.14 336.525 305.023 330.61 312.231 325.123C315.581 322.572 319.564 320.852 323.624 318.622C326.201 318.745 328.414 319.002 332.111 319.431C326.737 323.555 322.503 326.805 317.734 330.412C315.11 332.462 313.02 334.155 310.658 335.921C310.144 336.269 309.9 336.544 309.657 336.819C307.2 338.658 304.742 340.498 301.813 342.68C300.566 343.684 299.79 344.344 299.013 345.005C297.44 346.102 295.866 347.2 293.814 348.634C293.09 349.28 292.845 349.59 292.6 349.899C291.191 350.77 289.781 351.641 287.9 352.795C286.95 353.378 286.472 353.677 285.993 353.977C282.817 352.359 283.09 350.171 285.117 347.876C286.171 346.682 287.483 345.715 289.108 344.277C289.752 343.628 289.966 343.349 290.18 343.069Z" fill="#F3F6F7"/>
<path d="M283.994 343.002C283.66 343.053 283.383 343.207 282.695 343.775C281.811 344.356 281.395 344.625 280.979 344.894C280.24 344.351 279.501 343.808 278.404 342.751C277.881 341.814 277.717 341.39 277.553 340.967C278.938 339.513 280.324 338.059 281.877 336.317C282.044 336.031 282.009 336.016 282.302 335.932C283.118 335.249 283.642 334.65 284.165 334.051C287.068 331.612 289.894 329.074 292.892 326.759C296.428 324.028 300.098 321.422 305.983 324.234C300.332 328.975 295.143 333.327 289.811 337.947C289.212 338.578 288.758 338.943 287.811 339.623C286.688 340.541 286.059 341.143 285.429 341.744C285.034 342.019 284.638 342.293 284.121 342.784C284 343 283.994 343.002 283.994 343.002Z" fill="#EFF3F5"/>
<path d="M283.824 334.073C283.642 334.65 283.118 335.249 282.309 335.946C282.51 335.395 282.996 334.745 283.824 334.073Z" fill="#4B7F96"/>
<path d="M277.182 340.979C277.717 341.39 277.881 341.814 278.109 342.571C277.635 343.189 277.097 343.473 276.269 343.873C275.979 343.989 275.956 343.976 275.687 343.679C274.066 343.303 272.714 343.224 271.362 343.145C271.362 343.145 271.187 343.232 271.1 343.187C271.106 337.47 275.173 342.502 277.182 340.979Z" fill="#50879E"/>
<path d="M142.652 405.899C136.892 399.227 131.426 392.491 125.995 385.727C124.678 384.087 123.474 382.357 122.118 380.034C122.397 378.98 122.812 378.178 123.148 378.21C124.415 378.331 125.656 378.722 126.906 379.012C132.675 387.077 138.444 395.142 144.176 403.48C143.746 404.444 143.353 405.134 142.652 405.899Z" fill="#356483"/>
<path d="M136.973 433.841C136.939 433.628 137.181 433.342 137.703 432.993C137.738 433.21 137.493 433.489 136.973 433.841Z" fill="#405F84"/>
<path d="M155.702 405.777C155.722 405.527 156.046 405.294 156.675 405.097C156.656 405.353 156.331 405.574 155.702 405.777Z" fill="#487790"/>
<path d="M397.701 149.877C397.09 151.738 396.138 153.449 395.226 155.515C394.77 155.91 394.273 155.951 393.404 156.016C393.891 153.536 390.555 148.155 397.701 149.877Z" fill="#DD9C62"/>
<path d="M397.011 157.413C398.748 157.484 400.526 157.896 402.685 158.442C400.405 163.087 398.793 159.954 397.011 157.413Z" fill="#DD9C62"/>
<path d="M410.73 163.443C410.211 163.672 409.494 163.722 408.427 163.685C408.895 163.486 409.714 163.375 410.73 163.443Z" fill="#DD9C62"/>
<path d="M404.201 152.822C403.647 152.556 403.318 152.101 402.873 151.39C403.314 151.634 403.871 152.133 404.201 152.822Z" fill="#DC9D6B"/>
<path d="M415.243 158.655C415.494 158.428 415.912 158.334 416.638 158.35C416.435 158.569 415.923 158.678 415.243 158.655Z" fill="#DC9D6B"/>
<path d="M419.116 158.307C419.155 158.09 419.314 158.017 419.733 157.932C419.741 158.098 419.488 158.275 419.116 158.307Z" fill="#DC9D6B"/>
<path d="M412.45 157.208C412.636 157.222 412.724 157.364 412.851 157.753C412.507 157.924 412.328 157.703 412.45 157.208Z" fill="#DC9D6B"/>
<path d="M405.242 157.953C405.116 157.843 405.147 157.678 405.309 157.299C405.711 157.378 405.697 157.648 405.242 157.953Z" fill="#DD9C62"/>
<path d="M420.887 157.758C420.827 157.511 421.083 157.225 421.604 156.819C421.647 157.038 421.425 157.379 420.887 157.758Z" fill="#DC9D6B"/>
<path d="M209.18 124.892C209.405 124.895 209.628 125.171 209.848 125.718C209.622 125.714 209.4 125.44 209.18 124.892Z" fill="#5CB1A3"/>
<path d="M422.461 207.442C422.524 207.403 422.398 207.48 422.461 207.442Z" fill="#D58F53"/>
<path d="M345.083 252.285C345.17 252.112 345.339 252.091 345.749 252.153C345.716 252.304 345.44 252.37 345.083 252.285Z" fill="#5A93A6"/>
<path d="M310.93 335.849C313.02 334.155 315.11 332.462 317.535 330.666C318.261 331.573 318.651 332.583 319.125 333.995C317.599 335.683 315.99 336.97 314.095 338.327C313.102 338.036 312.396 337.673 311.331 336.862C310.958 336.225 310.944 336.037 310.93 335.849Z" fill="#468197"/>
<path d="M136.915 279.694C137 279.195 137.241 279.037 137.768 278.976C137.662 279.295 137.334 279.615 136.915 279.694Z" fill="#4E819A"/>
<path d="M116.836 373.294C116.177 372.573 115.518 371.853 114.806 370.842C115.51 369.482 116.267 368.412 117.117 366.95C118.076 367.501 118.941 368.443 119.579 369.841C118.514 371.296 117.675 372.295 116.836 373.294Z" fill="#487790"/>
<path d="M103.806 356.144C103.204 355.887 102.647 355.263 102.039 354.327C102.609 354.602 103.229 355.19 103.806 356.144Z" fill="#487790"/>
<path d="M92.9273 238.358C91.5394 238.636 90.0532 238.589 88.2587 238.345C89.5767 238.109 91.2028 238.071 92.9273 238.358Z" fill="#92B873"/>
<path d="M93.5578 242.973C93.3173 242.469 93.354 241.91 93.5891 241.142C93.8033 241.594 93.8191 242.255 93.5578 242.973Z" fill="#92B873"/>
<path d="M386.908 199.12C387.363 199.789 387.55 200.621 387.618 201.77C387.213 201.152 386.926 200.217 386.908 199.12Z" fill="#DDA474"/>
<path d="M48.8898 237.871C48.5396 238.374 48.0343 238.631 47.2343 238.892C47.5379 238.473 48.1362 238.049 48.8898 237.871Z" fill="#92B873"/>
<path d="M429.267 204.897C429.368 204.268 429.832 203.637 430.516 202.807C430.368 203.371 429.999 204.133 429.267 204.897Z" fill="#DDA474"/>
<path d="M274.502 367.654C274.512 368.422 274.146 369.328 273.622 370.622C274.566 370.753 275.432 370.873 276.641 370.993C272.481 372.235 267.951 374.626 263.477 374.525C242.674 374.056 221.886 372.897 201.092 371.986C200.759 371.971 200.369 372.084 200.101 371.948C198.208 370.984 196.339 369.97 194.463 368.972C196.358 368.202 198.285 366.696 200.145 366.774C221.442 367.663 242.724 368.904 264.022 369.745C267.359 369.876 270.756 368.481 274.502 367.654Z" fill="#487790"/>
<path d="M126.829 378.706C125.656 378.722 124.415 378.331 123.148 378.21C122.812 378.178 122.397 378.98 122.002 379.714C121.128 379.036 120.27 378.044 119.711 376.532C120.907 375.263 121.803 374.513 122.699 373.763C124.05 375.309 125.4 376.854 126.829 378.706Z" fill="#487790"/>
<path d="M122.588 373.445C121.803 374.513 120.907 375.263 119.61 376.211C118.462 375.557 117.715 374.705 116.902 373.573C117.675 372.295 118.514 371.296 119.667 370.152C120.814 371.047 121.645 372.087 122.588 373.445Z" fill="#356483"/>
<path d="M277.317 348.262C278.038 348.829 278.795 349.692 279.309 350.766C278.495 350.171 277.925 349.365 277.317 348.262Z" fill="#50879E"/>
<path d="M305.375 359.012C304.761 358.214 304.37 357.363 303.954 356.135C304.393 355.461 304.858 355.162 305.616 354.8C305.901 355.71 305.892 356.684 305.991 357.945C306.072 358.571 305.905 358.813 305.375 359.012Z" fill="#468197"/>
<path d="M275.99 343.996C276.304 344.88 276.607 345.757 276.88 346.986C276.276 346.911 275.702 346.485 275.04 345.426C274.986 344.535 275.021 344.278 275.281 344.014C275.506 344.007 275.956 343.976 275.956 343.976C275.956 343.976 275.979 343.989 275.99 343.996Z" fill="#50879E"/>
<path d="M279.888 356.181C280.154 356.582 280.287 357.157 280.19 357.872C279.892 357.459 279.824 356.907 279.888 356.181Z" fill="#50879E"/>
<path d="M275.687 343.679C275.956 343.976 275.506 344.007 274.904 344.011C273.802 344.033 273.301 344.052 272.801 344.07C272.427 343.935 272.054 343.799 271.521 343.404C272.714 343.224 274.066 343.303 275.687 343.679Z" fill="#4B7F96"/>
<path d="M272.987 344.34C273.301 344.052 273.802 344.033 274.679 344.017C275.021 344.278 274.986 344.535 274.92 345.182C274.317 345.251 273.745 344.93 272.987 344.34Z" fill="#407A95"/>
<path d="M304.165 346.315C304.673 345.453 305.451 344.708 306.551 343.956C306.06 344.776 305.248 345.604 304.165 346.315Z" fill="#558C9E"/>
<path d="M301.337 348.076C301.281 347.843 301.505 347.539 302.016 347.177C302.074 347.414 301.845 347.709 301.337 348.076Z" fill="#558C9E"/>
<path d="M299.372 345.008C299.79 344.344 300.566 343.684 301.651 342.968C301.217 343.612 300.474 344.312 299.372 345.008Z" fill="#558C9E"/>
<path d="M281.11 345.11C281.395 344.625 281.811 344.356 282.589 343.992C282.38 344.374 281.81 344.85 281.11 345.11Z" fill="#50879E"/>
<path d="M286.158 354.208C286.472 353.677 286.95 353.378 287.718 353.061C287.446 353.509 286.885 353.973 286.158 354.208Z" fill="#558C9E"/>
<path d="M285.818 341.787C286.059 341.143 286.688 340.541 287.636 339.857C287.373 340.459 286.79 341.145 285.818 341.787Z" fill="#50879E"/>
<path d="M292.906 349.843C292.845 349.59 293.09 349.28 293.632 348.898C293.689 349.145 293.45 349.465 292.906 349.843Z" fill="#558C9E"/>
<path d="M289.919 343.138C289.966 343.349 289.752 343.628 289.277 343.975C289.229 343.764 289.444 343.485 289.919 343.138Z" fill="#50879E"/>
<path d="M284.001 342.997C284.122 343.135 284.24 343.274 284.359 343.414C284.271 343.369 284.182 343.323 284.044 343.14C283.994 343.002 284 343 284.001 342.997Z" fill="#50879E"/>
<path d="M310.658 335.921C310.944 336.037 310.958 336.225 310.973 336.696C310.754 336.965 310.533 336.951 309.985 336.878C309.9 336.544 310.144 336.269 310.658 335.921Z" fill="#558C9E"/>
</g>
<defs>
<clipPath id="clip0_6_2">
<rect width="473" height="471" fill="white"/>
</clipPath>
</defs>
</svg>
