<?xml version="1.0" standalone="no"?>
<!DOCTYPE svg PUBLIC "-//W3C//DTD SVG 20010904//EN"
 "http://www.w3.org/TR/2001/REC-SVG-20010904/DTD/svg10.dtd">
<svg version="1.0" xmlns="http://www.w3.org/2000/svg"
 width="676.000000pt" height="369.000000pt" viewBox="0 0 676.000000 369.000000"
 preserveAspectRatio="xMidYMid meet">

<g transform="translate(0.000000,369.000000) scale(0.100000,-0.100000)"
fill="#000000" stroke="none">
<path fill="#003366" d="M1605 2420 c-79 -25 -100 -36 -161 -85 -55 -43 -104 -115 -124 -181
-20 -67 -10 -209 20 -269 53 -109 147 -174 340 -235 117 -37 150 -59 150 -102
0 -22 5 -28 20 -28 69 0 122 74 100 140 -16 49 -68 81 -199 124 -183 59 -257
110 -280 193 -44 158 46 280 232 314 146 27 288 -35 339 -148 l19 -43 73 0
c40 0 75 2 78 6 9 8 -20 93 -46 138 -75 127 -220 196 -405 195 -66 0 -115 -6
-156 -19z"/>
<path d="M2579 2228 c-46 -12 -78 -45 -80 -83 -5 -66 17 -86 135 -122 71 -22
89 -42 62 -72 -24 -27 -100 -28 -151 -4 -31 15 -37 15 -45 3 -16 -26 -11 -37
24 -54 22 -10 60 -16 108 -16 62 1 77 4 103 25 25 21 30 32 30 71 0 58 -28 85
-111 104 -86 20 -114 49 -78 84 17 18 88 21 128 7 18 -7 28 -6 36 4 20 24 5
41 -44 54 -52 13 -67 13 -117 -1z"/>
<path d="M2941 2225 c-79 -25 -124 -86 -124 -170 0 -54 12 -85 47 -123 35 -39
71 -52 143 -52 57 0 75 4 106 25 121 83 90 281 -50 323 -50 15 -66 14 -122 -3z
m151 -85 c51 -62 45 -138 -16 -185 -98 -75 -224 23 -187 146 17 56 60 82 126
76 41 -4 54 -10 77 -37z"/>
<path d="M3260 2055 l0 -175 30 0 c29 0 29 0 32 68 l3 67 83 3 c80 3 82 3 82
27 0 25 -1 25 -85 25 l-85 0 0 55 0 55 95 0 c95 0 95 0 95 25 l0 25 -125 0
-125 0 0 -175z"/>
<path d="M3540 2205 c0 -22 4 -24 58 -27 l57 -3 3 -148 3 -148 27 3 27 3 5
145 5 145 53 3 c48 3 52 5 52 28 l0 24 -145 0 -145 0 0 -25z"/>
<path d="M3861 2203 c5 -16 26 -80 47 -143 21 -63 43 -128 48 -145 8 -25 15
-30 46 -33 l36 -3 37 118 c21 65 41 121 45 126 3 4 23 -44 44 -106 20 -62 41
-118 45 -125 5 -8 21 -12 40 -10 l33 3 50 155 c28 85 53 163 55 173 4 13 -1
17 -25 17 -29 0 -30 -2 -70 -122 -22 -68 -44 -122 -49 -121 -4 0 -26 55 -48
122 -39 120 -40 121 -71 121 -31 0 -31 -1 -69 -117 -21 -65 -40 -122 -43 -127
-7 -13 -19 12 -57 133 l-36 111 -34 0 c-32 0 -33 -1 -24 -27z"/>
<path d="M4520 2184 c-11 -26 -20 -48 -20 -50 0 -1 -16 -38 -36 -81 -82 -178
-80 -173 -43 -173 26 0 33 6 47 40 l17 40 91 0 92 0 16 -40 c14 -34 20 -40 46
-40 16 0 30 5 30 10 0 6 -16 45 -35 86 -19 41 -35 76 -35 79 0 2 -18 42 -40
89 -39 83 -42 86 -75 86 -31 0 -36 -4 -55 -46z m75 -59 c8 -19 22 -50 30 -69
8 -19 15 -37 15 -40 0 -8 -115 -8 -122 0 -5 4 52 144 58 144 2 0 10 -16 19
-35z"/>
<path d="M4820 2056 l0 -176 29 0 c29 0 30 2 33 53 l3 52 39 3 c42 4 55 -6 95
-70 19 -32 28 -38 57 -38 19 0 34 2 34 5 0 3 -16 28 -36 57 -36 50 -36 52 -18
67 69 56 70 136 4 196 -18 17 -39 20 -131 23 l-109 4 0 -176z m206 99 c20 -27
17 -72 -6 -95 -16 -16 -33 -20 -80 -20 l-60 0 0 71 0 71 66 -4 c50 -3 70 -9
80 -23z"/>
<path d="M5180 2055 l0 -175 135 0 135 0 0 25 c0 24 -1 24 -102 27 l-103 3 -3
47 -3 47 88 3 c86 3 88 3 88 28 0 25 -2 25 -88 28 l-88 3 3 42 3 42 98 3 c96
3 97 3 97 27 l0 25 -130 0 -130 0 0 -175z"/>
<path fill="#003366" d="M1648 2152 c-38 -23 -61 -75 -54 -118 10 -50 62 -87 184 -127 153
-51 199 -74 246 -121 125 -124 58 -323 -127 -378 -54 -16 -190 -16 -243 0 -67
20 -133 70 -162 123 l-27 49 -79 0 -78 0 6 -32 c25 -127 142 -235 305 -282
114 -33 290 -18 407 35 64 29 149 112 181 177 24 51 27 68 27 162 0 86 -4 113
-21 150 -52 110 -143 175 -336 241 -60 21 -120 45 -133 54 -25 16 -41 56 -29
74 10 17 -37 12 -67 -7z"/>

<g fill="#003366">
  <path d="M2560 1719 c-39 -16 -60 -40 -60 -70 0 -34 26 -54 98 -75 29 -9 57
  -24 62 -34 13 -24 13 -26 -6 -44 -20 -20 -90 -21 -126 -2 -26 14 -28 13 -28
  -3 0 -24 75 -46 124 -37 45 9 66 30 66 67 0 38 -29 66 -77 75 -53 9 -83 30
  -83 58 0 42 51 55 128 31 36 -12 26 14 -13 31 -39 16 -50 17 -85 3z"/>
  <path d="M2903 1711 c-49 -23 -73 -55 -80 -109 -13 -97 91 -176 185 -142 63
  23 92 64 92 130 0 53 -30 96 -84 121 -51 23 -61 23 -113 0z m131 -45 c29 -27
  36 -41 36 -72 0 -83 -57 -126 -145 -110 -87 17 -102 148 -23 196 50 30 90 26
  132 -14z"/>
  <path d="M4537 1716 c-50 -18 -74 -41 -87 -82 -24 -72 12 -147 83 -173 43 -16
  78 -13 117 10 46 28 58 46 66 96 15 101 -83 183 -179 149z m93 -31 c41 -21 60
  -53 60 -102 0 -57 -31 -92 -87 -100 -77 -10 -133 35 -133 107 0 42 15 67 53
  90 38 24 68 25 107 5z"/>
  <path d="M5303 1715 c-68 -29 -68 -94 0 -125 23 -11 51 -20 63 -20 25 0 54
  -29 54 -54 0 -10 -13 -23 -31 -30 -30 -13 -49 -11 -116 9 -37 12 -27 -14 12
  -31 87 -36 179 9 161 79 -4 19 -18 30 -53 42 -93 33 -113 44 -113 65 0 42 72
  62 133 35 12 -5 17 -3 17 7 0 9 -17 20 -39 26 -47 15 -48 15 -88 -3z"/>
  <path d="M3250 1590 c0 -127 1 -130 23 -135 39 -10 150 -1 155 13 3 9 -16 12
  -72 12 l-76 0 0 120 c0 100 -2 120 -15 120 -13 0 -15 -21 -15 -130z"/>
  <path d="M3560 1624 c0 -73 4 -103 17 -125 37 -62 156 -62 188 1 21 41 21 220
  0 220 -12 0 -15 -18 -15 -100 0 -118 -12 -140 -80 -140 -68 0 -80 22 -80 140
  0 82 -3 100 -15 100 -12 0 -15 -17 -15 -96z"/>
  <path d="M3910 1711 c0 -6 21 -11 47 -13 l47 -3 1 -119 c0 -86 3 -120 13 -123
  9 -4 12 25 12 121 l0 126 50 0 c28 0 50 5 50 10 0 6 -43 10 -110 10 -62 0
  -110 -4 -110 -9z"/>
  <path d="M4262 1590 c4 -175 22 -177 26 -2 2 114 0 132 -13 132 -13 0 -15 -18
  -13 -130z"/>
  <path d="M4872 1590 c4 -159 21 -179 28 -32 l5 103 85 -106 c46 -58 89 -104
  95 -102 6 2 11 55 13 135 2 113 0 132 -13 132 -12 0 -15 -17 -15 -100 0 -55
  -4 -100 -9 -100 -5 0 -21 17 -37 38 -15 20 -31 39 -34 42 -4 3 -26 31 -49 63
  -66 87 -72 81 -69 -73z"/>
</g>
</g>
</svg>
